<svg xmlns="http://www.w3.org/2000/svg" width="95" height="42" viewBox="0 0 95 42" fill="none">
<path fill-rule="evenodd" clip-rule="evenodd" d="M14.9772 0.457045C14.9772 0.478522 14.9447 0.557109 14.9051 0.63166C14.8654 0.706211 14.833 0.78598 14.833 0.808928C14.833 0.831875 14.8211 0.850644 14.8065 0.850644C14.7919 0.850644 14.7714 0.889562 14.7609 0.93713C14.7505 0.984697 14.7315 1.02362 14.7188 1.02362C14.706 1.02362 14.6889 1.05282 14.6807 1.08848C14.6625 1.16822 14.5932 1.3499 14.5736 1.36959C14.5405 1.40268 14.4582 1.57914 14.4582 1.61694C14.4582 1.63943 14.4453 1.65785 14.4294 1.65785C14.4136 1.65785 14.4003 1.68056 14.3999 1.7083C14.3996 1.73603 14.3609 1.83659 14.3141 1.93172C14.2672 2.02685 14.2286 2.12092 14.2282 2.14073C14.2279 2.16056 14.2146 2.17676 14.1988 2.17676C14.1829 2.17676 14.17 2.2092 14.17 2.24884C14.17 2.28848 14.157 2.32091 14.1411 2.32091C14.1253 2.32091 14.1123 2.33748 14.1123 2.35775C14.1123 2.37799 14.0734 2.46958 14.0258 2.56125C13.9782 2.65296 13.9393 2.75204 13.9393 2.78148C13.9393 2.81094 13.9296 2.83933 13.9177 2.84464C13.8864 2.85856 13.7952 3.03909 13.7952 3.0872C13.7952 3.10969 13.7822 3.12811 13.7663 3.12811C13.7505 3.12811 13.7375 3.14714 13.7375 3.17037C13.7375 3.21408 13.6925 3.32616 13.575 3.57536C13.5376 3.65487 13.5069 3.73596 13.5069 3.75554C13.5069 3.77514 13.495 3.79117 13.4803 3.79117C13.4658 3.79117 13.4453 3.83009 13.4348 3.87766C13.4244 3.92523 13.4039 3.96414 13.3893 3.96414C13.3747 3.96414 13.3627 3.98213 13.3627 4.0041C13.3627 4.02607 13.3434 4.08119 13.3197 4.12662C13.296 4.17203 13.2765 4.2319 13.2764 4.25964C13.2763 4.28737 13.2661 4.31009 13.2538 4.31009C13.2414 4.31009 13.2061 4.37495 13.1754 4.45423C13.1446 4.53351 13.1093 4.59838 13.0969 4.59838C13.0846 4.59838 13.0745 4.61694 13.0745 4.6396C13.0745 4.66229 13.0355 4.76492 12.988 4.86769C12.9404 4.97047 12.9015 5.06866 12.9015 5.08593C12.9015 5.10317 12.8885 5.11729 12.8727 5.11729C12.8568 5.11729 12.8438 5.14972 12.8438 5.18936C12.8438 5.229 12.8319 5.26144 12.8173 5.26144C12.8027 5.26144 12.7822 5.30035 12.7718 5.34792C12.7613 5.39549 12.7408 5.43441 12.7262 5.43441C12.7116 5.43441 12.6997 5.45283 12.6997 5.47532C12.6997 5.4978 12.6816 5.55295 12.6595 5.59784C12.6374 5.64272 12.5855 5.74746 12.5442 5.8306C12.5029 5.91371 12.4691 6.0013 12.4691 6.02519C12.4691 6.04909 12.4561 6.06864 12.4402 6.06864C12.4244 6.06864 12.4114 6.0872 12.4114 6.10986C12.4114 6.13255 12.3725 6.23518 12.3249 6.33796C12.2773 6.44073 12.2384 6.53892 12.2384 6.55619C12.2384 6.57343 12.2255 6.58756 12.2096 6.58756C12.1937 6.58756 12.1808 6.61999 12.1808 6.65963C12.1808 6.69927 12.1688 6.7317 12.1542 6.7317C12.1396 6.7317 12.1191 6.77062 12.1087 6.81819C12.0983 6.86575 12.0778 6.90467 12.0632 6.90467C12.0486 6.90467 12.0366 6.9371 12.0366 6.97674C12.0366 7.01638 12.0247 7.04882 12.0101 7.04882C11.9955 7.04882 11.9744 7.09096 11.9632 7.14251C11.952 7.19405 11.9348 7.24269 11.9249 7.25062C11.8887 7.27959 11.806 7.44818 11.806 7.49289C11.806 7.5182 11.793 7.5389 11.7772 7.5389C11.7613 7.5389 11.7483 7.56407 11.7483 7.59486C11.7483 7.62565 11.7364 7.65823 11.7217 7.66725C11.7071 7.6763 11.6866 7.72248 11.6762 7.76985C11.6658 7.81724 11.6468 7.85602 11.6339 7.85602C11.6211 7.85602 11.6021 7.90142 11.5917 7.95692C11.5813 8.01241 11.5604 8.05782 11.5452 8.05782C11.5301 8.05782 11.5177 8.09025 11.5177 8.12989C11.5177 8.16953 11.5058 8.20196 11.4912 8.20196C11.4766 8.20196 11.4561 8.24088 11.4456 8.28845C11.4352 8.33602 11.4147 8.37494 11.4001 8.37494C11.3855 8.37494 11.3736 8.39096 11.3736 8.41057C11.3736 8.44323 11.2804 8.65328 11.1828 8.84063C11.1609 8.88272 11.1429 8.93787 11.1429 8.96316C11.1429 8.98847 11.13 9.00917 11.1141 9.00917C11.0983 9.00917 11.0853 9.02869 11.0853 9.05253C11.0853 9.07637 11.0257 9.2223 10.953 9.37685C10.8802 9.53137 10.7959 9.71057 10.7656 9.77503C10.7353 9.83949 10.7105 9.91407 10.7105 9.9408C10.7105 9.96749 10.6975 9.98934 10.6817 9.98934C10.6658 9.98934 10.6528 10.0059 10.6528 10.0262C10.6528 10.0464 10.6139 10.138 10.5664 10.2297C10.5188 10.3214 10.4799 10.4151 10.4799 10.4379C10.4799 10.4608 10.4669 10.4794 10.451 10.4794C10.4352 10.4794 10.4222 10.5046 10.4222 10.5354C10.4222 10.5662 10.4103 10.5988 10.3956 10.6078C10.381 10.6168 10.3605 10.663 10.3501 10.7104C10.3397 10.7578 10.3192 10.7965 10.3046 10.7965C10.29 10.7965 10.2777 10.8193 10.2772 10.847C10.2767 10.8747 10.2572 10.9226 10.2339 10.9534C10.2106 10.9842 10.1916 11.0382 10.1916 11.0735C10.1916 11.1088 10.1819 11.142 10.17 11.1473C10.1501 11.1561 10.1045 11.2451 10.0245 11.4308C10.0074 11.4704 9.95369 11.5913 9.90512 11.6995C9.85657 11.8076 9.81682 11.9146 9.81682 11.9373C9.81682 11.96 9.80701 11.9785 9.79502 11.9785C9.78303 11.9785 9.75547 12.0207 9.73379 12.0722C9.71208 12.1238 9.67648 12.2036 9.65465 12.2496C9.63286 12.2957 9.61501 12.3492 9.61501 12.3686C9.61501 12.388 9.59556 12.42 9.57177 12.4398C9.54799 12.4595 9.52853 12.5054 9.52853 12.5418C9.52853 12.5782 9.51881 12.6123 9.50691 12.6176C9.48592 12.6269 9.43705 12.7222 9.34676 12.9299C9.32263 12.9854 9.26933 13.1045 9.22831 13.1947C9.18731 13.2848 9.15376 13.3724 9.15376 13.3893C9.15376 13.4061 9.14078 13.42 9.12493 13.42C9.10907 13.42 9.0961 13.4524 9.0961 13.492C9.0961 13.5317 9.08416 13.5641 9.06955 13.5641C9.05496 13.5641 9.03446 13.603 9.02403 13.6506C9.01359 13.6982 8.99309 13.7371 8.97851 13.7371C8.96389 13.7371 8.95155 13.7663 8.95103 13.8019C8.95054 13.8376 8.93108 13.892 8.90779 13.9228C8.88452 13.9536 8.86547 14.0022 8.86547 14.0309C8.86547 14.0596 8.8525 14.083 8.83664 14.083C8.82078 14.083 8.80781 14.095 8.80781 14.1097C8.80781 14.1244 8.76119 14.2379 8.70423 14.362C8.64726 14.486 8.58116 14.6329 8.55735 14.6884C8.53354 14.7439 8.47634 14.8679 8.4303 14.964C8.38423 15.0601 8.34655 15.1542 8.34655 15.173C8.34655 15.1919 8.33358 15.2073 8.31772 15.2073C8.30187 15.2073 8.28889 15.2253 8.28889 15.2473C8.28889 15.2693 8.26952 15.3244 8.24582 15.3698C8.22216 15.4152 8.2027 15.474 8.20258 15.5004C8.20249 15.5268 8.19269 15.5528 8.18079 15.5581C8.1598 15.5674 8.11094 15.6627 8.02064 15.8704C7.99651 15.9259 7.94321 16.0451 7.90219 16.1352C7.86119 16.2254 7.82763 16.3129 7.82763 16.3298C7.82763 16.3467 7.81466 16.3605 7.79881 16.3605C7.78295 16.3605 7.76998 16.3929 7.76998 16.4326C7.76998 16.4722 7.75804 16.5046 7.74343 16.5046C7.72884 16.5046 7.70834 16.5436 7.69791 16.5911C7.68747 16.6387 7.66697 16.6776 7.65239 16.6776C7.63777 16.6776 7.62583 16.71 7.62583 16.7497C7.62583 16.7893 7.6139 16.8217 7.59928 16.8217C7.58469 16.8217 7.56362 16.8639 7.55243 16.9154C7.54125 16.967 7.52401 17.0156 7.51409 17.0235C7.49596 17.0381 7.43862 17.1543 7.35758 17.3407C7.25686 17.5723 7.15595 17.7965 7.09034 17.9345C7.05188 18.0154 7.02043 18.0965 7.02043 18.1147C7.02043 18.1329 7.00746 18.1479 6.9916 18.1479C6.97575 18.1479 6.96277 18.1803 6.96277 18.2199C6.96277 18.2596 6.95084 18.292 6.93622 18.292C6.92163 18.292 6.90056 18.3342 6.88937 18.3857C6.87819 18.4372 6.86095 18.4859 6.85103 18.4938C6.8184 18.52 6.73214 18.6995 6.73214 18.7412C6.73214 18.7637 6.71917 18.7821 6.70331 18.7821C6.68746 18.7821 6.67449 18.8017 6.67449 18.8257C6.67449 18.8497 6.66241 18.8919 6.64765 18.9194C6.56344 19.0764 6.44386 19.3553 6.44386 19.3946C6.44386 19.4198 6.43414 19.4447 6.42224 19.45C6.40004 19.4598 6.34273 19.5736 6.25765 19.7767C6.18789 19.9432 6.17154 19.9799 6.04193 20.2613C5.97758 20.4009 5.92485 20.5242 5.92477 20.5351C5.92465 20.5461 5.87285 20.6588 5.80963 20.7857C5.7464 20.9125 5.6946 21.0326 5.69448 21.0524C5.6944 21.0722 5.68134 21.0884 5.66548 21.0884C5.64963 21.0884 5.63665 21.1208 5.63665 21.1605C5.63665 21.2001 5.62472 21.2325 5.6101 21.2325C5.59551 21.2325 5.57444 21.2747 5.56325 21.3262C5.55207 21.3778 5.53483 21.4264 5.52491 21.4344C5.49228 21.4605 5.40602 21.64 5.40602 21.6817C5.40602 21.7042 5.39305 21.7226 5.37719 21.7226C5.36134 21.7226 5.34837 21.7478 5.34837 21.7786C5.34837 21.8094 5.3364 21.842 5.32176 21.851C5.30711 21.86 5.28661 21.9062 5.27621 21.9536C5.2658 22.001 5.24859 22.0398 5.23798 22.0399C5.22734 22.0399 5.19402 22.1015 5.16395 22.1768C5.10941 22.3133 5.02998 22.4948 4.89875 22.7829C4.86064 22.8666 4.82945 22.9476 4.82945 22.963C4.82945 22.9785 4.81648 22.9911 4.80062 22.9911C4.78476 22.9911 4.7715 23.0138 4.77116 23.0415C4.77078 23.0693 4.73215 23.1698 4.68531 23.265C4.63846 23.3601 4.59983 23.4542 4.59945 23.474C4.59911 23.4938 4.58585 23.51 4.56999 23.51C4.55413 23.51 4.54116 23.528 4.54116 23.55C4.54116 23.5719 4.52179 23.6271 4.49809 23.6725C4.47442 23.7179 4.45496 23.7767 4.45485 23.8031C4.45476 23.8295 4.44496 23.8555 4.43305 23.8608C4.39722 23.8767 4.31053 24.0585 4.31053 24.1177C4.31053 24.1482 4.29756 24.1731 4.2817 24.1731C4.26585 24.1731 4.25287 24.186 4.25287 24.2017C4.25287 24.2494 4.15425 24.4614 4.13205 24.4614C4.12067 24.4614 4.10282 24.5068 4.09241 24.5623C4.08201 24.6178 4.06194 24.6632 4.04787 24.6632C4.03378 24.6632 4.02225 24.6883 4.02225 24.7191C4.02225 24.7499 4.01028 24.7825 3.99564 24.7915C3.98099 24.8006 3.96049 24.8467 3.95009 24.8941C3.93968 24.9415 3.91924 24.9803 3.90465 24.9803C3.89004 24.9803 3.8781 24.9956 3.8781 25.0144C3.8781 25.0332 3.85216 25.1046 3.82044 25.173C3.78873 25.2414 3.73857 25.3525 3.70899 25.4199C3.67941 25.4873 3.62104 25.6174 3.57926 25.709C3.53749 25.8006 3.50333 25.8881 3.50333 25.9036C3.50333 25.919 3.49036 25.9316 3.4745 25.9316C3.45864 25.9316 3.44567 25.9459 3.44567 25.9633C3.44567 25.9807 3.42621 26.0391 3.40243 26.093C3.37864 26.1469 3.33973 26.2352 3.31594 26.2891C3.29216 26.3431 3.2727 26.4014 3.2727 26.4189C3.2727 26.4363 3.25973 26.4505 3.24387 26.4505C3.22801 26.4505 3.21504 26.483 3.21504 26.5226C3.21504 26.5622 3.20311 26.5947 3.18849 26.5947C3.1739 26.5947 3.15283 26.6369 3.14164 26.6884C3.13046 26.7399 3.11322 26.7886 3.1033 26.7965C3.06554 26.8268 2.98441 27.0054 2.98441 27.0583C2.98441 27.0887 2.97429 27.1136 2.96193 27.1136C2.94956 27.1136 2.91427 27.1785 2.88351 27.2577C2.85275 27.337 2.81804 27.4019 2.8064 27.4019C2.79475 27.4019 2.7767 27.4473 2.76629 27.5028C2.75589 27.5583 2.73582 27.6037 2.72175 27.6037C2.70766 27.6037 2.69613 27.6289 2.69613 27.6596C2.69613 27.6904 2.68416 27.723 2.66952 27.732C2.65487 27.7411 2.63437 27.7873 2.62397 27.8346C2.61356 27.882 2.59312 27.9208 2.57853 27.9208C2.56392 27.9208 2.55158 27.9435 2.55106 27.9713C2.55057 27.999 2.53111 28.0469 2.50782 28.0777C2.48455 28.1084 2.4655 28.1625 2.4655 28.1978C2.4655 28.2331 2.45578 28.2663 2.44387 28.2716C2.41424 28.2847 2.32135 28.4895 2.32135 28.5416C2.32135 28.5648 2.30838 28.5839 2.29252 28.5839C2.27667 28.5839 2.26369 28.5965 2.26369 28.6119C2.26369 28.6402 2.15095 28.9041 2.07449 29.0547C2.05172 29.0996 2.03306 29.1547 2.03306 29.1772C2.03306 29.1997 2.02113 29.2181 2.00651 29.2181C1.99193 29.2181 1.97143 29.257 1.96099 29.3046C1.95056 29.3521 1.93006 29.3911 1.91547 29.3911C1.90086 29.3911 1.88892 29.4107 1.88892 29.4347C1.88892 29.4587 1.87707 29.5009 1.8626 29.5284C1.75916 29.7252 1.65829 29.9504 1.65829 29.9845C1.65829 30.007 1.64532 30.0253 1.62946 30.0253C1.61361 30.0253 1.60063 30.0505 1.60063 30.0813C1.60063 30.112 1.5891 30.1443 1.57501 30.1531C1.56091 30.1618 1.54105 30.202 1.5309 30.2425C1.52072 30.283 1.4609 30.4245 1.39797 30.557C1.33501 30.6895 1.28352 30.8122 1.28352 30.8296C1.28352 30.8471 1.27055 30.8613 1.25469 30.8613C1.23883 30.8613 1.22586 30.8797 1.22586 30.9022C1.22586 30.9247 1.20753 30.9799 1.1851 31.0248C1.10827 31.1785 1.02781 31.3658 1.00763 31.4379C0.996529 31.4775 0.978799 31.5165 0.968219 31.5244C0.941466 31.5445 0.851088 31.7424 0.851088 31.781C0.851088 31.7984 0.838115 31.8127 0.822259 31.8127C0.806403 31.8127 0.793027 31.8419 0.792508 31.8775C0.792017 31.9132 0.772558 31.9676 0.749265 31.9984C0.726 32.0292 0.706944 32.0767 0.706944 32.1041C0.706944 32.1314 0.697229 32.1581 0.685323 32.1634C0.649489 32.1793 0.562801 32.3612 0.562801 32.4204C0.562801 32.4508 0.549828 32.4757 0.533972 32.4757C0.518116 32.4757 0.505143 32.4894 0.505143 32.5062C0.505143 32.5229 0.466225 32.6151 0.418657 32.7109C0.37109 32.8068 0.332171 32.9034 0.332171 32.9255C0.332171 32.9477 0.319198 32.9658 0.303343 32.9658C0.287487 32.9658 0.274514 32.9892 0.274514 33.0177C0.274514 33.0463 0.26402 33.0819 0.25122 33.097C0.23842 33.1121 0.183502 33.2379 0.129189 33.3766C0.0749043 33.5154 0.0199851 33.6289 0.00721397 33.6289C-0.00558598 33.6289 -0.000887118 33.6451 0.0176209 33.6649C0.0442298 33.6934 0.698901 33.6995 3.13945 33.694C4.83795 33.6902 6.24387 33.6809 6.26368 33.6733C6.28351 33.6657 6.29971 33.6407 6.29971 33.6178C6.29971 33.5948 6.30943 33.5717 6.32133 33.5664C6.35097 33.5533 6.44386 33.3485 6.44386 33.2964C6.44386 33.2731 6.45398 33.2541 6.46634 33.2541C6.47871 33.2541 6.514 33.1892 6.54476 33.11C6.57552 33.0307 6.61023 32.9658 6.62187 32.9658C6.63352 32.9658 6.65157 32.9204 6.66197 32.8649C6.67238 32.8094 6.69031 32.764 6.70184 32.764C6.71335 32.764 6.74702 32.6927 6.77668 32.6055C6.80632 32.5183 6.84086 32.4469 6.85343 32.4469C6.86599 32.4469 6.87629 32.4289 6.87629 32.4069C6.87629 32.385 6.89566 32.3299 6.91936 32.2844C6.94303 32.239 6.96249 32.1802 6.9626 32.1538C6.96269 32.1274 6.97249 32.1015 6.98439 32.0961C7.01573 32.0822 7.10692 31.9017 7.10692 31.8536C7.10692 31.8311 7.11989 31.8127 7.13575 31.8127C7.1516 31.8127 7.16457 31.7936 7.16457 31.7704C7.16457 31.7183 7.25746 31.5135 7.2871 31.5004C7.299 31.4951 7.30901 31.4691 7.30935 31.4427C7.30973 31.4163 7.34836 31.3168 7.3952 31.2217C7.44205 31.1265 7.48068 31.0325 7.48106 31.0127C7.4814 30.9929 7.49466 30.9766 7.51052 30.9766C7.52637 30.9766 7.53935 30.9587 7.53935 30.9367C7.53935 30.9147 7.55872 30.8596 7.58242 30.8142C7.60609 30.7688 7.62555 30.71 7.62566 30.6835C7.62575 30.6571 7.63555 30.6312 7.64746 30.6259C7.67709 30.6127 7.76998 30.408 7.76998 30.3558C7.76998 30.3326 7.7801 30.3136 7.79246 30.3136C7.80483 30.3136 7.84012 30.2487 7.87088 30.1694C7.90164 30.0902 7.93692 30.0253 7.94929 30.0253C7.96166 30.0253 7.97186 30.0026 7.97195 29.9748C7.97207 29.9471 7.99153 29.8872 8.01519 29.8418C8.03889 29.7964 8.05826 29.7413 8.05826 29.7193C8.05826 29.6973 8.0702 29.6793 8.08482 29.6793C8.0994 29.6793 8.1199 29.6404 8.13034 29.5929C8.14077 29.5453 8.16127 29.5064 8.17586 29.5064C8.19047 29.5064 8.20241 29.4884 8.20241 29.4664C8.20241 29.4445 8.22178 29.3893 8.24548 29.3439C8.26915 29.2985 8.28861 29.2397 8.28872 29.2133C8.28881 29.1869 8.29861 29.1609 8.31052 29.1556C8.34185 29.1417 8.43304 28.9612 8.43304 28.9131C8.43304 28.8906 8.44601 28.8721 8.46187 28.8721C8.47772 28.8721 8.49069 28.847 8.49069 28.8162C8.49069 28.7854 8.50266 28.7528 8.5173 28.7438C8.53195 28.7347 8.55245 28.6886 8.56285 28.6412C8.57326 28.5938 8.5922 28.555 8.60494 28.555C8.61769 28.555 8.63481 28.5258 8.64297 28.4902C8.66344 28.4008 8.73193 28.2266 8.75347 28.2091C8.76324 28.2012 8.77941 28.1687 8.78945 28.137C8.79945 28.1053 8.84765 28.0567 8.89655 28.0289C8.98052 27.9813 9.3632 27.9785 15.8035 27.9785C19.5535 27.9785 22.617 27.9687 22.6115 27.9568C22.6059 27.945 22.5738 27.8768 22.5401 27.8055C22.5064 27.7341 22.4547 27.6142 22.4253 27.5389C22.3958 27.4637 22.362 27.4021 22.3501 27.402C22.3382 27.4019 22.3285 27.3833 22.3285 27.3607C22.3285 27.338 22.2911 27.2374 22.2453 27.1372C22.1996 27.037 22.1451 26.9064 22.1243 26.8469C22.1033 26.7875 22.0769 26.7388 22.0655 26.7388C22.0541 26.7388 22.0363 26.7002 22.0259 26.653C22.0155 26.6057 21.9756 26.5052 21.9373 26.4295C21.8989 26.3539 21.8674 26.2758 21.8673 26.2559C21.8673 26.2361 21.8557 26.2199 21.8415 26.2199C21.8274 26.2199 21.8069 26.1843 21.7959 26.1407C21.7769 26.0651 21.6529 25.7881 21.5043 25.4893C21.466 25.4125 21.4348 25.3315 21.4348 25.3091C21.4348 25.2868 21.4218 25.2686 21.406 25.2686C21.3901 25.2686 21.3771 25.2543 21.3771 25.2369C21.3771 25.2195 21.3561 25.1578 21.3305 25.0999C21.2182 24.8467 21.2042 24.8113 21.2042 24.7813C21.2042 24.7639 21.1933 24.7496 21.18 24.7496C21.1667 24.7496 21.1316 24.6783 21.102 24.5911C21.0723 24.5039 21.0378 24.4325 21.0252 24.4325C21.0126 24.4325 21.0024 24.4091 21.0024 24.3804C21.0024 24.3517 20.9833 24.3031 20.96 24.2723C20.9367 24.2415 20.9173 24.1871 20.9168 24.1514C20.9163 24.1158 20.9057 24.0866 20.8934 24.0866C20.881 24.0866 20.8457 24.0217 20.815 23.9424C20.7842 23.8632 20.7503 23.7983 20.7397 23.7983C20.729 23.7983 20.7118 23.7626 20.7014 23.719C20.6842 23.6468 20.5768 23.3957 20.5104 23.2726C20.4956 23.245 20.4834 23.2029 20.4834 23.1789C20.4834 23.1549 20.4705 23.1352 20.4546 23.1352C20.4387 23.1352 20.4258 23.1215 20.4258 23.1048C20.4258 23.0737 20.3308 22.8439 20.2806 22.7537C20.2653 22.7261 20.2528 22.685 20.2528 22.6624C20.2528 22.6397 20.2431 22.6168 20.2312 22.6115C20.2042 22.5995 20.1087 22.42 20.1087 22.3813C20.1087 22.2676 20.2151 22.2704 15.8477 22.2704C13.5494 22.2704 11.6282 22.2622 11.5784 22.2522C11.4919 22.2349 11.4886 22.2292 11.5068 22.1297C11.5174 22.0723 11.5371 22.021 11.5507 22.0157C11.5643 22.0104 11.5754 21.9912 11.5754 21.9729C11.5754 21.9546 11.6091 21.8681 11.6504 21.7807C11.6916 21.6933 11.7421 21.5828 11.7626 21.5352C11.783 21.4877 11.8206 21.4014 11.8461 21.3435C11.8716 21.2856 11.8925 21.2186 11.8925 21.1945C11.8925 21.1705 11.9022 21.1465 11.9141 21.1412C11.9482 21.1261 12.0366 20.9547 12.0366 20.9038C12.0366 20.8785 12.0496 20.8578 12.0655 20.8578C12.0813 20.8578 12.0943 20.8326 12.0943 20.8018C12.0943 20.771 12.1058 20.7387 12.1199 20.73C12.134 20.7213 12.1545 20.6785 12.1655 20.6349C12.1764 20.5913 12.194 20.549 12.2047 20.5409C12.239 20.5148 12.3249 20.3097 12.3249 20.2538C12.3249 20.2239 12.3346 20.1952 12.3465 20.1899C12.3686 20.1801 12.4133 20.0915 12.5262 19.8343C12.6002 19.6658 12.6655 19.5216 12.769 19.2981C12.8102 19.2094 12.8438 19.1218 12.8438 19.1035C12.8438 19.0853 12.8568 19.0704 12.8727 19.0704C12.8885 19.0704 12.9015 19.052 12.9015 19.0295C12.9015 18.9814 12.9927 18.8008 13.024 18.7869C13.0359 18.7816 13.0456 18.7484 13.0456 18.7131C13.0456 18.6779 13.0647 18.6238 13.088 18.593C13.1112 18.5623 13.1307 18.5144 13.1312 18.4866C13.1317 18.4588 13.1451 18.4362 13.1609 18.4362C13.1768 18.4362 13.1898 18.416 13.1898 18.3913C13.1898 18.3666 13.2287 18.268 13.2763 18.1721C13.3238 18.0763 13.3627 17.9797 13.3627 17.9575C13.3627 17.9354 13.3732 17.9172 13.3859 17.9172C13.3986 17.9172 13.4332 17.8491 13.4628 17.7659C13.4924 17.6826 13.5241 17.6081 13.5334 17.6001C13.5669 17.5714 13.651 17.3662 13.651 17.3132C13.651 17.2834 13.6607 17.2547 13.6727 17.2494C13.704 17.2354 13.7952 17.0549 13.7952 17.0068C13.7952 16.9843 13.8055 16.9659 13.818 16.9659C13.8306 16.9659 13.8651 16.8945 13.8948 16.8073C13.9244 16.7201 13.959 16.6488 13.9715 16.6488C13.9841 16.6488 14.0029 16.6034 14.0133 16.5479C14.0237 16.4924 14.0438 16.447 14.0578 16.447C14.0719 16.447 14.0835 16.4218 14.0835 16.391C14.0835 16.3602 14.0954 16.3277 14.1101 16.3186C14.1247 16.3096 14.1452 16.2634 14.1556 16.216C14.166 16.1686 14.1865 16.1299 14.2011 16.1299C14.2157 16.1299 14.2276 16.1114 14.2276 16.089C14.2276 16.0408 14.3188 15.8603 14.3501 15.8464C14.362 15.8411 14.3718 15.8199 14.3718 15.7992C14.3718 15.7786 14.3911 15.7245 14.4148 15.6791C14.4385 15.6337 14.4579 15.5749 14.4581 15.5485C14.4582 15.5221 14.468 15.4961 14.4799 15.4908C14.4996 15.482 14.5434 15.3969 14.6255 15.2073C14.6427 15.1677 14.6881 15.0639 14.7265 14.9767C14.7649 14.8895 14.8063 14.7857 14.8185 14.7461C14.8308 14.7064 14.8491 14.6675 14.8593 14.6596C14.8695 14.6517 14.9016 14.5868 14.9306 14.5155C14.9596 14.4441 15.0144 14.3242 15.0523 14.249C15.0902 14.1738 15.1213 14.0927 15.1213 14.0688C15.1213 14.0449 15.1343 14.0254 15.1501 14.0254C15.166 14.0254 15.179 14.0063 15.179 13.9831C15.179 13.9395 15.2669 13.7339 15.2965 13.7082C15.3057 13.7003 15.3556 13.59 15.4076 13.4632C15.4595 13.3364 15.5136 13.2202 15.5278 13.2052C15.5421 13.1901 15.5537 13.1544 15.5537 13.1259C15.5537 13.0974 15.5657 13.074 15.5803 13.074C15.5949 13.074 15.6154 13.0351 15.6258 12.9875C15.6362 12.94 15.6567 12.901 15.6713 12.901C15.6859 12.901 15.6979 12.8831 15.6979 12.8611C15.6979 12.8391 15.7172 12.784 15.7409 12.7386C15.7646 12.6932 15.7841 12.6344 15.7842 12.6079C15.7843 12.5815 15.7941 12.5556 15.806 12.5503C15.8373 12.5364 15.9285 12.3558 15.9285 12.3077C15.9285 12.2852 15.9415 12.2668 15.9573 12.2668C15.9732 12.2668 15.9862 12.2478 15.9862 12.2245C15.9862 12.1724 16.079 11.9677 16.1087 11.9545C16.1206 11.9492 16.1303 11.9193 16.1303 11.888C16.1303 11.8567 16.1605 11.7767 16.1973 11.7102C16.2341 11.6437 16.2886 11.5212 16.3183 11.438C16.348 11.3547 16.3821 11.2866 16.3941 11.2866C16.4062 11.2866 16.4245 11.2412 16.4349 11.1857C16.4453 11.1302 16.4632 11.0848 16.4748 11.0848C16.4863 11.0848 16.5199 11.0135 16.5496 10.9263C16.5793 10.8391 16.6138 10.7677 16.6264 10.7677C16.6389 10.7677 16.6492 10.7551 16.6492 10.7397C16.6492 10.7114 16.762 10.4475 16.8384 10.2969C16.8612 10.252 16.8798 10.1969 16.8798 10.1744C16.8798 10.1519 16.8918 10.1335 16.9064 10.1335C16.921 10.1335 16.9415 10.0946 16.9519 10.047C16.9624 9.99943 16.9829 9.96052 16.9974 9.96052C17.0121 9.96052 17.024 9.94088 17.024 9.91687C17.024 9.89288 17.0361 9.85071 17.0508 9.82318C17.1239 9.68707 17.2546 9.38985 17.2546 9.36004C17.2546 9.34148 17.2676 9.32628 17.2834 9.32628C17.2993 9.32628 17.3123 9.30726 17.3123 9.28402C17.3123 9.2319 17.4052 9.02713 17.4348 9.01398C17.4467 9.00868 17.4564 8.98688 17.4564 8.96552C17.4564 8.94419 17.4953 8.84262 17.5429 8.73985C17.5905 8.63708 17.6294 8.53889 17.6294 8.52162C17.6294 8.50438 17.6424 8.49025 17.6582 8.49025C17.6741 8.49025 17.687 8.45782 17.687 8.41818C17.687 8.37854 17.7 8.34611 17.7159 8.34611C17.7317 8.34611 17.7447 8.3323 17.7447 8.31543C17.7447 8.29857 17.7754 8.21747 17.8128 8.13525C17.8503 8.05303 17.8909 7.95332 17.9032 7.91368C17.9154 7.87404 17.9338 7.83512 17.944 7.82719C17.9542 7.81926 17.9879 7.7544 18.0189 7.68305C18.1094 7.47464 18.1339 7.46303 18.2189 7.58823C18.2594 7.64773 18.2925 7.71288 18.2925 7.73298C18.2925 7.75307 18.3054 7.76953 18.3213 7.76953C18.3371 7.76953 18.3501 7.79023 18.3501 7.81554C18.3501 7.84083 18.3684 7.89598 18.3908 7.93807C18.4559 8.06067 18.5231 8.22243 18.5231 8.25677C18.5231 8.27421 18.5361 8.28845 18.5519 8.28845C18.5678 8.28845 18.5807 8.30687 18.5807 8.32936C18.5807 8.35184 18.5994 8.40699 18.6221 8.45188C18.7137 8.63235 18.8114 8.85825 18.8114 8.88953C18.8114 8.90775 18.8243 8.92268 18.8402 8.92268C18.8561 8.92268 18.869 8.94171 18.869 8.96494C18.869 9.01707 18.9619 9.22184 18.9915 9.23498C19.0035 9.24029 19.0133 9.26623 19.0135 9.29264C19.0137 9.31908 19.0449 9.39504 19.0829 9.46143C19.1209 9.52785 19.1607 9.62189 19.1713 9.67044C19.182 9.71899 19.2027 9.75871 19.2172 9.75871C19.2319 9.75871 19.2438 9.79115 19.2438 9.83079C19.2438 9.87043 19.2568 9.90286 19.2726 9.90286C19.2885 9.90286 19.3017 9.91909 19.3021 9.93889C19.3025 9.95873 19.3411 10.0528 19.3879 10.1479C19.4348 10.243 19.4734 10.3371 19.4738 10.3569C19.4741 10.3767 19.4874 10.3929 19.5033 10.3929C19.5191 10.3929 19.5321 10.4179 19.5321 10.4483C19.5321 10.5075 19.6188 10.6893 19.6546 10.7052C19.6665 10.7106 19.6762 10.7322 19.6762 10.7534C19.6762 10.7746 19.6945 10.8286 19.7169 10.8735C19.829 11.0982 19.9069 11.2767 19.9069 11.3087C19.9069 11.3283 19.9172 11.3443 19.9297 11.3443C19.9423 11.3443 19.9768 11.4156 20.0065 11.5029C20.0361 11.5901 20.0698 11.6614 20.0813 11.6614C20.0928 11.6614 20.1108 11.7068 20.1212 11.7623C20.1316 11.8178 20.1525 11.8632 20.1676 11.8632C20.1828 11.8632 20.1951 11.8884 20.1951 11.9192C20.1951 11.95 20.2071 11.9825 20.2218 11.9916C20.2364 12.0006 20.2569 12.0468 20.2673 12.0942C20.2777 12.1416 20.2982 12.1803 20.3127 12.1803C20.3274 12.1803 20.3393 12.1964 20.3393 12.216C20.3393 12.2355 20.373 12.3231 20.4143 12.4106C20.4555 12.498 20.506 12.6084 20.5264 12.656C20.5469 12.7036 20.5975 12.8174 20.6388 12.909C20.6802 13.0006 20.7141 13.0882 20.7141 13.1036C20.7141 13.119 20.7265 13.1317 20.7416 13.1317C20.7567 13.1317 20.7776 13.1771 20.788 13.2326C20.7984 13.2881 20.8185 13.3335 20.8326 13.3335C20.8467 13.3335 20.8582 13.3659 20.8582 13.4055C20.8582 13.4452 20.8701 13.4776 20.8848 13.4776C20.8993 13.4776 20.9198 13.5165 20.9303 13.5641C20.9407 13.6117 20.9612 13.6506 20.9758 13.6506C20.9904 13.6506 21.0024 13.669 21.0024 13.6915C21.0024 13.714 21.0207 13.7691 21.0431 13.814C21.1551 14.0387 21.233 14.2172 21.233 14.2492C21.233 14.2688 21.2449 14.2848 21.2595 14.2848C21.2741 14.2848 21.2946 14.3237 21.3051 14.3713C21.3155 14.4189 21.336 14.4578 21.3506 14.4578C21.3652 14.4578 21.3771 14.4902 21.3771 14.5299C21.3771 14.5695 21.3901 14.6019 21.406 14.6019C21.4218 14.6019 21.4348 14.6226 21.4348 14.6479C21.4348 14.6732 21.4531 14.7284 21.4754 14.7705C21.5406 14.8931 21.6078 15.0548 21.6078 15.0892C21.6078 15.1066 21.6207 15.1209 21.6366 15.1209C21.6524 15.1209 21.6654 15.1393 21.6654 15.1618C21.6654 15.2099 21.7566 15.3904 21.7879 15.4043C21.7998 15.4096 21.8096 15.4428 21.8096 15.4781C21.8096 15.5134 21.8286 15.5674 21.8519 15.5982C21.8752 15.629 21.8946 15.6769 21.8951 15.7046C21.8956 15.7324 21.908 15.7551 21.9226 15.7551C21.9372 15.7551 21.9576 15.7939 21.968 15.8413C21.9784 15.8886 21.9989 15.9348 22.0136 15.9439C22.0282 15.9529 22.0402 15.9855 22.0402 16.0162C22.0402 16.047 22.0532 16.0722 22.069 16.0722C22.0849 16.0722 22.0978 16.0864 22.0978 16.1039C22.0978 16.1213 22.1173 16.1797 22.1411 16.2336C22.1649 16.2875 22.2038 16.3758 22.2276 16.4297C22.2514 16.4836 22.2708 16.542 22.2708 16.5594C22.2708 16.5769 22.2838 16.5911 22.2996 16.5911C22.3155 16.5911 22.3285 16.6095 22.3285 16.632C22.3285 16.6801 22.4197 16.8607 22.451 16.8746C22.4629 16.8799 22.473 16.9123 22.4735 16.9467C22.474 16.981 22.4935 17.0343 22.5168 17.0651C22.54 17.0959 22.5591 17.1445 22.5591 17.1732C22.5591 17.2019 22.571 17.2253 22.5857 17.2253C22.6002 17.2253 22.6207 17.2641 22.6311 17.3115C22.6415 17.3589 22.662 17.4051 22.6766 17.4141C22.6913 17.4231 22.7032 17.4557 22.7032 17.4865C22.7032 17.5173 22.7162 17.5425 22.7321 17.5425C22.7479 17.5425 22.7609 17.5659 22.7609 17.5946C22.7609 17.6233 22.78 17.6719 22.8032 17.7027C22.8265 17.7335 22.846 17.7814 22.8465 17.8091C22.847 17.8369 22.8604 17.8596 22.8762 17.8596C22.8921 17.8596 22.905 17.883 22.905 17.9117C22.905 17.9404 22.9241 17.989 22.9474 18.0198C22.9707 18.0506 22.9901 18.0985 22.9906 18.1262C22.9911 18.154 23.0035 18.1767 23.0181 18.1767C23.0327 18.1767 23.0532 18.2156 23.0636 18.2632C23.074 18.3107 23.0945 18.3497 23.1091 18.3497C23.1237 18.3497 23.1357 18.3821 23.1357 18.4217C23.1357 18.4614 23.1476 18.4938 23.1622 18.4938C23.1768 18.4938 23.1979 18.536 23.2091 18.5875C23.2203 18.639 23.2375 18.6877 23.2474 18.6956C23.2773 18.7196 23.3663 18.9252 23.3663 18.9705C23.3663 18.9937 23.3793 19.0127 23.3951 19.0127C23.411 19.0127 23.424 19.027 23.424 19.0444C23.424 19.0765 23.4578 19.159 23.5887 19.4452C23.7324 19.7597 23.7558 19.8057 23.7771 19.8151C23.789 19.8204 23.7987 19.8466 23.7987 19.8733C23.7987 19.9 23.8506 20.0252 23.9141 20.1515C23.9775 20.2777 24.0294 20.4039 24.0294 20.432C24.0294 20.46 24.0423 20.483 24.0582 20.483C24.0741 20.483 24.087 20.499 24.087 20.5186C24.087 20.5528 24.1118 20.6089 24.3139 21.0325C24.3635 21.1365 24.4041 21.237 24.4041 21.2559C24.4041 21.2747 24.4171 21.2902 24.433 21.2902C24.4488 21.2902 24.4618 21.3226 24.4618 21.3623C24.4618 21.4019 24.4748 21.4343 24.4906 21.4343C24.5065 21.4343 24.5197 21.4506 24.5201 21.4704C24.5205 21.4902 24.5591 21.5842 24.6059 21.6794C24.6528 21.7745 24.6914 21.875 24.6918 21.9028C24.6921 21.9306 24.7025 21.9533 24.7149 21.9533C24.7273 21.9533 24.7626 22.0181 24.7933 22.0974C24.8241 22.1767 24.8594 22.2415 24.8717 22.2415C24.8841 22.2415 24.8942 22.2622 24.8942 22.2876C24.8942 22.3128 24.9125 22.368 24.9349 22.4101C25 22.5327 25.0672 22.6944 25.0672 22.7288C25.0672 22.7462 25.0802 22.7605 25.096 22.7605C25.1119 22.7605 25.1249 22.7929 25.1249 22.8325C25.1249 22.8722 25.1368 22.9046 25.1514 22.9046C25.166 22.9046 25.1864 22.9432 25.1968 22.9905C25.2072 23.0377 25.2471 23.1382 25.2854 23.2139C25.3238 23.2896 25.3553 23.3677 25.3554 23.3875C25.3554 23.4073 25.3685 23.4235 25.3843 23.4235C25.4002 23.4235 25.4131 23.4419 25.4131 23.4644C25.4131 23.5125 25.5043 23.6931 25.5357 23.707C25.5475 23.7123 25.5573 23.7346 25.5573 23.7567C25.5573 23.7787 25.5884 23.8652 25.6264 23.9489C25.6644 24.0325 25.7195 24.1626 25.7489 24.2378C25.7783 24.3131 25.8121 24.3747 25.824 24.3748C25.8358 24.3748 25.8456 24.3891 25.8456 24.4065C25.8456 24.4365 25.8596 24.4719 25.9719 24.7252C25.9976 24.7831 26.0185 24.8447 26.0185 24.8621C26.0185 24.8795 26.0287 24.8938 26.041 24.8938C26.0534 24.8938 26.0887 24.9586 26.1194 25.0379C26.1502 25.1172 26.1855 25.1821 26.1979 25.1821C26.2102 25.1821 26.2203 25.212 26.2203 25.2486C26.2203 25.2852 26.2394 25.3404 26.2627 25.3712C26.286 25.4019 26.3054 25.4498 26.3059 25.4776C26.3064 25.5053 26.3188 25.528 26.3334 25.528C26.348 25.528 26.3685 25.5669 26.3789 25.6145C26.3893 25.6621 26.4098 25.701 26.4244 25.701C26.439 25.701 26.451 25.7334 26.451 25.7731C26.451 25.8127 26.464 25.8451 26.4798 25.8451C26.4957 25.8451 26.5086 25.8594 26.5086 25.8768C26.5086 25.8942 26.5281 25.9526 26.5519 26.0065C26.5757 26.0605 26.6146 26.1487 26.6384 26.2026C26.6621 26.2566 26.6816 26.315 26.6816 26.3324C26.6816 26.3498 26.6946 26.364 26.7104 26.364C26.7263 26.364 26.7393 26.3794 26.7393 26.3982C26.7393 26.417 26.7652 26.4883 26.7969 26.5567C26.8286 26.6252 26.8788 26.7363 26.9084 26.8037C26.938 26.8711 26.9963 27.0012 27.0381 27.0928C27.0799 27.1844 27.114 27.2719 27.114 27.2873C27.114 27.3028 27.127 27.3154 27.1429 27.3154C27.1587 27.3154 27.1717 27.3361 27.1717 27.3614C27.1717 27.3867 27.19 27.4418 27.2123 27.4839C27.2775 27.6065 27.3447 27.7683 27.3447 27.8026C27.3447 27.8201 27.3576 27.8343 27.3735 27.8343C27.3894 27.8343 27.4023 27.8527 27.4023 27.8752C27.4023 27.8977 27.4206 27.9529 27.4429 27.9977C27.4869 28.0861 27.5847 28.2989 27.7027 28.563C27.7436 28.6546 27.7771 28.7422 27.7771 28.7576C27.7771 28.773 27.7895 28.7857 27.8046 28.7857C27.8198 28.7857 27.8407 28.8312 27.8511 28.8869C27.8616 28.9425 27.8816 28.9952 27.8957 29.0039C27.9097 29.0126 27.9212 29.0449 27.9212 29.0756C27.9212 29.1064 27.9332 29.1316 27.9478 29.1316C27.9624 29.1316 27.9829 29.1705 27.9933 29.2181C28.0037 29.2657 28.0242 29.3046 28.0388 29.3046C28.0534 29.3046 28.0654 29.337 28.0654 29.3766C28.0654 29.4163 28.0784 29.4487 28.0942 29.4487C28.1101 29.4487 28.123 29.463 28.123 29.4804C28.123 29.4978 28.144 29.5595 28.1697 29.6173C28.282 29.8706 28.296 29.906 28.296 29.936C28.296 29.9534 28.309 29.9676 28.3248 29.9676C28.3407 29.9676 28.3537 29.9837 28.3537 30.0033C28.3537 30.0228 28.385 30.1039 28.4233 30.1834C28.5995 30.5493 28.6708 30.7099 28.6708 30.7411C28.6708 30.7596 28.6838 30.7748 28.6996 30.7748C28.7155 30.7748 28.7284 30.8073 28.7284 30.8469C28.7284 30.8866 28.7414 30.919 28.7573 30.919C28.7731 30.919 28.7861 30.9339 28.7861 30.9521C28.7861 30.9704 28.8175 31.0515 28.8558 31.1323C28.9978 31.4318 29.1032 31.6733 29.1032 31.6994C29.1032 31.7141 29.1162 31.7262 29.132 31.7262C29.1479 31.7262 29.1613 31.7554 29.1618 31.7911C29.1623 31.8267 29.1817 31.8811 29.205 31.9119C29.2283 31.9427 29.2474 31.9913 29.2474 32.02C29.2474 32.0487 29.2593 32.0721 29.2739 32.0721C29.2885 32.0721 29.309 32.1111 29.3194 32.1586C29.3299 32.2062 29.3504 32.2451 29.365 32.2451C29.3796 32.2451 29.3915 32.2775 29.3915 32.3172C29.3915 32.3568 29.4045 32.3892 29.4203 32.3892C29.4362 32.3892 29.4492 32.4035 29.4492 32.4209C29.4492 32.4383 29.4686 32.4967 29.4924 32.5507C29.5162 32.6046 29.5551 32.6928 29.5789 32.7468C29.6027 32.8007 29.6221 32.8591 29.6221 32.8765C29.6221 32.8939 29.6351 32.9082 29.651 32.9082C29.6668 32.9082 29.6798 32.9242 29.6798 32.9438C29.6798 32.9634 29.714 33.051 29.7558 33.1384C29.7976 33.2258 29.8527 33.3428 29.8783 33.3983C29.9039 33.4537 29.9346 33.5035 29.9465 33.5088C29.9583 33.5141 29.9681 33.5417 29.9681 33.5701C29.9681 33.5986 29.9857 33.6364 30.0072 33.6543C30.0357 33.678 30.8889 33.687 33.1424 33.6876C35.916 33.6883 36.2413 33.6837 36.2672 33.6434C36.2864 33.6134 36.2864 33.5915 36.2672 33.5776C36.2367 33.5556 36.1705 33.3992 36.1456 33.2901C36.1374 33.2545 36.1203 33.2253 36.1075 33.2253C36.0948 33.2253 36.0758 33.1865 36.0654 33.1391C36.055 33.0917 36.0345 33.0456 36.0199 33.0365C36.0052 33.0275 35.9933 32.9949 35.9933 32.9641C35.9933 32.9333 35.9803 32.9082 35.9645 32.9082C35.9486 32.9082 35.9356 32.8932 35.9356 32.875C35.9356 32.8568 35.9043 32.7757 35.8659 32.6948C35.7239 32.3954 35.6185 32.1538 35.6185 32.1278C35.6185 32.113 35.6055 32.101 35.5897 32.101C35.5738 32.101 35.5607 32.0783 35.5605 32.0505C35.5603 32.0228 35.5291 31.9457 35.4911 31.8793C35.4531 31.8129 35.4133 31.7189 35.4027 31.6703C35.392 31.6218 35.3714 31.582 35.3568 31.582C35.3422 31.582 35.3302 31.5496 35.3302 31.51C35.3302 31.4703 35.3183 31.4379 35.3037 31.4379C35.2891 31.4379 35.2687 31.3993 35.2583 31.352C35.2479 31.3048 35.208 31.2043 35.1696 31.1286C35.1312 31.0529 35.0998 30.9749 35.0997 30.955C35.0996 30.9352 35.0898 30.9189 35.078 30.9189C35.0661 30.9188 35.0322 30.8572 35.0026 30.7819C34.9524 30.6541 34.7529 30.217 34.6936 30.105C34.6791 30.0774 34.6672 30.0353 34.6672 30.0113C34.6672 29.9873 34.6542 29.9676 34.6383 29.9676C34.6225 29.9676 34.6095 29.9522 34.6095 29.9333C34.6095 29.9144 34.5689 29.8139 34.5192 29.7099C34.4695 29.6059 34.4158 29.4884 34.3998 29.4487C34.3374 29.2937 34.277 29.1744 34.2563 29.1652C34.2445 29.1599 34.2347 29.1381 34.2347 29.1168C34.2347 29.0955 34.1958 28.9939 34.1482 28.8911C34.1007 28.7883 34.0618 28.6902 34.0618 28.6729C34.0618 28.6556 34.0488 28.6415 34.0329 28.6415C34.0171 28.6415 34.0041 28.6091 34.0041 28.5694C34.0041 28.5298 33.9925 28.4974 33.9784 28.4974C33.9643 28.4974 33.9445 28.4646 33.9344 28.4245C33.9244 28.3845 33.884 28.2815 33.8448 28.1957C33.8056 28.11 33.7735 28.026 33.7735 28.0091C33.7735 27.9923 33.7637 27.9784 33.7518 27.9783C33.74 27.9783 33.7055 27.9167 33.6753 27.8414C33.645 27.7662 33.5718 27.6008 33.5125 27.474C33.4533 27.3471 33.3879 27.1947 33.3672 27.1352C33.3464 27.0758 33.3191 27.0271 33.3064 27.0271C33.2938 27.0271 33.2834 27.0139 33.2834 26.9977C33.2834 26.9815 33.2428 26.8809 33.1933 26.7743C33.1437 26.6676 33.09 26.5478 33.0739 26.5082C33.01 26.3508 32.9508 26.2338 32.9302 26.2247C32.9184 26.2194 32.9086 26.191 32.9086 26.1616C32.9086 26.1321 32.8966 26.1006 32.882 26.0916C32.8674 26.0825 32.8469 26.0363 32.8364 25.989C32.826 25.9416 32.8056 25.9028 32.791 25.9028C32.7764 25.9028 32.7645 25.8793 32.7645 25.8506C32.7645 25.822 32.7454 25.7733 32.7221 25.7425C32.6988 25.7118 32.6794 25.6574 32.6789 25.6217C32.6784 25.586 32.6679 25.5568 32.6555 25.5568C32.6431 25.5568 32.6078 25.492 32.5771 25.4127C32.5463 25.3334 32.5121 25.2686 32.5009 25.2686C32.4898 25.2686 32.4723 25.2299 32.4619 25.1827C32.4515 25.1355 32.4116 25.035 32.3733 24.9593C32.3349 24.8836 32.3034 24.8111 32.3033 24.798C32.3033 24.785 32.2383 24.6412 32.1591 24.4785C32.0798 24.3158 32.0149 24.161 32.0149 24.1346C32.0149 24.1082 32.0048 24.0866 31.9924 24.0866C31.9801 24.0866 31.9448 24.0217 31.914 23.9424C31.8833 23.8632 31.848 23.7983 31.8356 23.7983C31.8232 23.7983 31.8131 23.7775 31.8131 23.752C31.8131 23.7113 31.6867 23.4131 31.6098 23.2726C31.5948 23.245 31.5825 23.2029 31.5825 23.1789C31.5825 23.1549 31.5695 23.1352 31.5537 23.1352C31.5378 23.1352 31.5248 23.119 31.5247 23.0992C31.5247 23.0794 31.4858 22.9853 31.4383 22.8902C31.3909 22.7951 31.352 22.6945 31.352 22.6668C31.3519 22.639 31.3389 22.6163 31.323 22.6163C31.3072 22.6163 31.2942 22.6037 31.2942 22.5883C31.2942 22.5605 31.2194 22.3872 31.0635 22.0542C31.019 21.959 30.9658 21.8326 30.9452 21.7731C30.9247 21.7136 30.8975 21.665 30.8848 21.665C30.8721 21.665 30.8618 21.6484 30.8618 21.6281C30.8618 21.6079 30.8229 21.5163 30.7753 21.4246C30.7277 21.3329 30.6888 21.2327 30.6888 21.202C30.6888 21.1712 30.6787 21.1461 30.6663 21.1461C30.6539 21.1461 30.6187 21.0812 30.5879 21.0019C30.5571 20.9226 30.5219 20.8578 30.5095 20.8578C30.4971 20.8578 30.487 20.8329 30.487 20.8026C30.487 20.7565 30.3976 20.5507 30.2827 20.332C30.2682 20.3045 30.2564 20.2623 30.2564 20.2384C30.2564 20.2143 30.2434 20.1947 30.2275 20.1947C30.2117 20.1947 30.1987 20.1805 30.1987 20.163C30.1987 20.1456 30.1792 20.0872 30.1555 20.0333C30.1317 19.9794 30.0928 19.8911 30.069 19.8372C30.0452 19.7833 30.0257 19.7249 30.0257 19.7075C30.0257 19.69 30.0156 19.6758 30.0032 19.6758C29.9909 19.6758 29.9556 19.6109 29.9248 19.5316C29.8941 19.4524 29.8588 19.3875 29.8464 19.3875C29.8341 19.3875 29.8239 19.3689 29.8239 19.3463C29.8239 19.3236 29.785 19.221 29.7374 19.1182C29.6899 19.0154 29.651 18.9172 29.651 18.9C29.651 18.8827 29.6406 18.8686 29.6278 18.8686C29.6151 18.8686 29.5809 18.8024 29.5518 18.7216C29.5228 18.6407 29.4684 18.5142 29.4309 18.4405C29.3935 18.3668 29.3629 18.2837 29.3628 18.256C29.3627 18.2282 29.3523 18.2055 29.3396 18.2055C29.3268 18.2055 29.2936 18.1421 29.2657 18.0646C29.2378 17.987 29.1639 17.8218 29.1015 17.6975C29.039 17.5732 28.9879 17.455 28.9879 17.4349C28.9879 17.4148 28.9749 17.3983 28.9591 17.3983C28.9432 17.3983 28.9302 17.3809 28.9302 17.3595C28.9302 17.3233 28.8757 17.1906 28.8131 17.0744C28.7982 17.0469 28.7861 17.0047 28.7861 16.9807C28.7861 16.9567 28.7731 16.9371 28.7573 16.9371C28.7414 16.9371 28.7284 16.9187 28.7284 16.8962C28.7284 16.8737 28.6976 16.7926 28.6598 16.716C28.6221 16.6394 28.5684 16.5248 28.5406 16.4614C28.4419 16.2364 28.3205 15.9706 28.294 15.9213C28.2793 15.8937 28.2672 15.8515 28.2672 15.8276C28.2672 15.8035 28.2571 15.7839 28.2447 15.7839C28.2323 15.7839 28.197 15.719 28.1663 15.6398C28.1355 15.5605 28.1002 15.4956 28.0879 15.4956C28.0755 15.4956 28.0651 15.4729 28.0648 15.4452C28.0644 15.4174 28.0257 15.3169 27.9789 15.2218C27.9321 15.1266 27.8934 15.0326 27.893 15.0127C27.8927 14.9929 27.8794 14.9767 27.8636 14.9767C27.8477 14.9767 27.8348 14.9518 27.8348 14.9214C27.8348 14.891 27.8161 14.8293 27.7933 14.7845C27.7169 14.6339 27.6041 14.37 27.6041 14.3417C27.6041 14.3263 27.5938 14.3137 27.5813 14.3137C27.5687 14.3137 27.5342 14.2423 27.5045 14.1551C27.4749 14.0679 27.4397 13.9965 27.4265 13.9965C27.4132 13.9965 27.4023 13.9782 27.4023 13.9558C27.4023 13.9216 27.3015 13.6964 27.198 13.4996C27.1835 13.4721 27.1717 13.4299 27.1717 13.4059C27.1717 13.3819 27.1587 13.3623 27.1429 13.3623C27.127 13.3623 27.114 13.3457 27.114 13.3255C27.114 13.3052 27.0751 13.2136 27.0276 13.122C26.98 13.0303 26.9411 12.9301 26.9411 12.8993C26.9411 12.8686 26.9313 12.8433 26.9194 12.8433C26.9076 12.8432 26.8728 12.7816 26.8423 12.7063C26.8117 12.6311 26.7786 12.563 26.7687 12.5551C26.7588 12.5472 26.7266 12.4758 26.6972 12.3965C26.6677 12.3173 26.6359 12.2459 26.6265 12.238C26.617 12.2301 26.5845 12.149 26.5543 12.0578C26.524 11.9666 26.4894 11.892 26.4774 11.892C26.4654 11.892 26.4471 11.8534 26.4367 11.8062C26.4263 11.759 26.3864 11.6584 26.3481 11.5828C26.3097 11.5071 26.2782 11.429 26.2781 11.4092C26.2781 11.3894 26.2671 11.3731 26.2538 11.3731C26.2406 11.3731 26.2055 11.3018 26.1758 11.2146C26.1462 11.1274 26.1116 11.056 26.0991 11.056C26.0865 11.056 26.0762 11.0377 26.0762 11.0152C26.0762 10.9811 25.9753 10.7559 25.8719 10.5591C25.8574 10.5316 25.8456 10.4894 25.8456 10.4654C25.8456 10.4414 25.8326 10.4218 25.8167 10.4218C25.8009 10.4218 25.7879 10.4056 25.7878 10.3857C25.7877 10.3659 25.7563 10.2878 25.7179 10.2121C25.6795 10.1365 25.6396 10.0359 25.6292 9.98871C25.6188 9.94149 25.6013 9.90286 25.5902 9.90286C25.5791 9.90286 25.5448 9.83799 25.514 9.75871C25.4833 9.67943 25.448 9.61457 25.4356 9.61457C25.4233 9.61457 25.4131 9.59554 25.4131 9.57231C25.4131 9.52019 25.3203 9.31541 25.2906 9.30227C25.2787 9.29696 25.2689 9.27102 25.2688 9.24461C25.2687 9.21817 25.2493 9.15939 25.2256 9.11399C25.2019 9.06855 25.1825 9.01343 25.1825 8.99147C25.1825 8.9695 25.1722 8.95151 25.1597 8.95151C25.1471 8.95151 25.1125 8.88016 25.0829 8.79295C25.0532 8.70574 25.0196 8.63439 25.0081 8.63439C24.9965 8.63439 24.9788 8.58994 24.9686 8.5356C24.9584 8.48126 24.9407 8.43259 24.9293 8.42749C24.9004 8.41446 24.8077 8.20897 24.8077 8.15774C24.8077 8.13451 24.7948 8.11548 24.7789 8.11548C24.7631 8.11548 24.7501 8.10028 24.7501 8.08172C24.7501 8.05191 24.6193 7.75469 24.5463 7.61859C24.5315 7.59105 24.5195 7.54888 24.5195 7.52489C24.5195 7.50088 24.5065 7.48125 24.4906 7.48125C24.4748 7.48125 24.4617 7.46504 24.4617 7.44521C24.4616 7.42541 24.4301 7.34728 24.3917 7.2716C24.3534 7.19593 24.3135 7.0954 24.3031 7.04818C24.2927 7.00096 24.2723 6.96233 24.2577 6.96233C24.2431 6.96233 24.2312 6.9497 24.2312 6.93428C24.2312 6.90882 24.159 6.74029 24.0334 6.47224C24.0074 6.41675 23.9764 6.36702 23.9645 6.36174C23.9526 6.35644 23.9428 6.33049 23.9427 6.30408C23.9426 6.27765 23.9231 6.21887 23.8995 6.17346C23.8758 6.12803 23.8564 6.07291 23.8564 6.05094C23.8564 6.02897 23.8445 6.01098 23.8298 6.01098C23.8153 6.01098 23.7948 5.97221 23.7844 5.92481C23.774 5.87745 23.7535 5.83126 23.7389 5.82221C23.7242 5.81319 23.7123 5.78061 23.7123 5.74982C23.7123 5.71903 23.7007 5.69387 23.6866 5.69387C23.6726 5.69387 23.6525 5.64846 23.6421 5.59297C23.6317 5.53747 23.6139 5.49207 23.6027 5.49207C23.5914 5.49207 23.5643 5.44992 23.5424 5.39837C23.4123 5.09132 23.2636 4.75892 23.2202 4.67806C23.2054 4.65053 23.1933 4.60835 23.1933 4.58436C23.1933 4.56035 23.1804 4.54072 23.1645 4.54072C23.1486 4.54072 23.1356 4.52452 23.1356 4.50468C23.1355 4.48488 23.104 4.40675 23.0656 4.33108C23.0272 4.2554 22.9874 4.15488 22.977 4.10765C22.9666 4.06043 22.9492 4.0218 22.9384 4.0218C22.9169 4.0218 22.8186 3.80867 22.8186 3.76214C22.8186 3.7464 22.8056 3.73351 22.7897 3.73351C22.7739 3.73351 22.7609 3.70835 22.7609 3.67756C22.7609 3.64677 22.7489 3.61419 22.7343 3.60517C22.7197 3.59612 22.6992 3.54993 22.6887 3.50257C22.6783 3.45517 22.6579 3.4164 22.6433 3.4164C22.6287 3.4164 22.6168 3.38475 22.6168 3.34603C22.6168 3.30731 22.6048 3.26825 22.5902 3.25922C22.5755 3.25017 22.555 3.20399 22.5446 3.15662C22.5342 3.10923 22.5166 3.07045 22.5055 3.07045C22.4944 3.07045 22.4601 3.00559 22.4294 2.92631C22.3986 2.84703 22.3633 2.78217 22.351 2.78217C22.3386 2.78217 22.3285 2.76314 22.3285 2.7399C22.3285 2.68778 22.2356 2.48301 22.206 2.46987C22.1941 2.46456 22.1842 2.43861 22.1842 2.41221C22.184 2.38577 22.1646 2.32699 22.1409 2.28158C22.1172 2.23615 22.0978 2.18103 22.0978 2.15906C22.0978 2.1371 22.0859 2.11911 22.0713 2.11911C22.0567 2.11911 22.0363 2.08048 22.0259 2.03325C22.0155 1.98603 21.9756 1.88551 21.9373 1.80983C21.8989 1.73416 21.8674 1.65606 21.8673 1.63623C21.8673 1.61642 21.8569 1.60019 21.8444 1.60019C21.8318 1.60019 21.7972 1.52884 21.7676 1.44163C21.7379 1.35443 21.7028 1.28307 21.6896 1.28307C21.6763 1.28307 21.6654 1.26439 21.6654 1.24156C21.6654 1.21873 21.6265 1.12503 21.5789 1.03333C21.5314 0.941655 21.4924 0.851163 21.4924 0.832223C21.4924 0.813282 21.4825 0.793476 21.4703 0.788172C21.4582 0.782896 21.4154 0.700734 21.3752 0.605599L21.3022 0.432627L18.1397 0.425305C15.494 0.419164 14.9772 0.424353 14.9772 0.457045ZM69.1967 0.472786C69.149 0.521189 69.1463 0.847471 69.1463 6.50493C69.1463 11.1184 69.1384 12.4938 69.1117 12.5205C69.0549 12.5773 69.0103 12.5611 68.8902 12.4398C68.8274 12.3764 68.768 12.3245 68.7583 12.3245C68.7485 12.3245 68.6864 12.2726 68.6205 12.2092C68.5544 12.1457 68.4884 12.0938 68.4736 12.0938C68.4589 12.0938 68.404 12.0484 68.3516 11.9929C68.2993 11.9374 68.244 11.892 68.2288 11.892C68.2135 11.892 68.1592 11.8547 68.1082 11.8091C67.9757 11.6907 67.9604 11.6792 67.8562 11.6177C67.8047 11.5873 67.7625 11.5523 67.7625 11.5399C67.7625 11.5274 67.743 11.5173 67.7193 11.5173C67.6955 11.5173 67.676 11.5046 67.676 11.489C67.676 11.4734 67.6436 11.4526 67.604 11.4426C67.5643 11.4327 67.5319 11.4158 67.5319 11.405C67.5319 11.3943 67.4897 11.361 67.4382 11.3311C67.3867 11.3011 67.338 11.2691 67.3301 11.26C67.3054 11.2316 67.2027 11.1705 67.1499 11.1527C67.1221 11.1434 67.0994 11.1257 67.0994 11.1134C67.0994 11.1012 67.067 11.0829 67.0274 11.073C66.9877 11.063 66.9553 11.0422 66.9553 11.0266C66.9553 11.0111 66.9359 10.9983 66.9121 10.9983C66.8883 10.9983 66.8688 10.9868 66.8688 10.9726C66.8688 10.9585 66.8364 10.9388 66.7968 10.9288C66.7571 10.9189 66.7247 10.898 66.7247 10.8825C66.7247 10.8669 66.6987 10.8542 66.667 10.8542C66.6353 10.8542 66.6094 10.8415 66.6094 10.8259C66.6094 10.8104 66.5769 10.7895 66.5373 10.7796C66.4977 10.7696 66.4652 10.7499 66.4652 10.7358C66.4652 10.7216 66.4401 10.7101 66.4093 10.7101C66.3785 10.7101 66.3458 10.6979 66.3366 10.683C66.3179 10.6528 66.153 10.5659 66.1143 10.5659C66.1005 10.5659 66.0379 10.5335 65.9751 10.4938C65.9123 10.4542 65.8464 10.4218 65.8287 10.4218C65.79 10.4218 65.5919 10.3318 65.5715 10.3049C65.5636 10.2945 65.5085 10.277 65.449 10.2661C65.3896 10.2551 65.3409 10.2338 65.3409 10.2187C65.3409 10.2035 65.3214 10.1911 65.2977 10.1911C65.2739 10.1911 65.2544 10.1798 65.2544 10.166C65.2544 10.1522 65.2027 10.1326 65.1395 10.1225C65.0762 10.1124 64.9788 10.0784 64.9229 10.047C64.867 10.0156 64.7695 9.98165 64.7063 9.97153C64.6431 9.96141 64.5914 9.94183 64.5914 9.928C64.5914 9.91416 64.5662 9.90286 64.5354 9.90286C64.5046 9.90286 64.4719 9.89063 64.4627 9.8757C64.4534 9.86077 64.3845 9.83949 64.3096 9.82845C64.2347 9.81741 64.1668 9.80023 64.1589 9.79028C64.1389 9.76508 63.8785 9.6946 63.7481 9.67906C63.6887 9.67197 63.64 9.65551 63.64 9.64245C63.64 9.62939 63.5685 9.60979 63.4811 9.59886C63.3937 9.58793 63.3151 9.56755 63.3064 9.55354C63.2978 9.53953 63.2292 9.52808 63.154 9.52808C63.0788 9.52808 63.0027 9.51344 62.9848 9.49557C62.9669 9.47766 62.8605 9.45647 62.7484 9.44843C62.6362 9.44042 62.5445 9.42263 62.5445 9.40891C62.5445 9.39518 62.4368 9.38394 62.3052 9.38394C62.1522 9.38394 62.053 9.37094 62.03 9.3479C62.0039 9.32181 61.8151 9.30922 61.3467 9.30227C60.9806 9.29682 60.6995 9.28117 60.6995 9.26623C60.6995 9.2517 60.6022 9.2398 60.4833 9.2398C60.3643 9.2398 60.267 9.2517 60.267 9.26623C60.267 9.28117 59.9859 9.29682 59.6198 9.30227C59.1514 9.30922 58.9626 9.32181 58.9365 9.3479C58.9135 9.37094 58.8143 9.38394 58.6613 9.38394C58.5297 9.38394 58.422 9.39513 58.422 9.40882C58.422 9.42251 58.3376 9.44047 58.2343 9.44878C58.1311 9.45705 58.0306 9.47694 58.0109 9.493C57.9913 9.50903 57.9103 9.52886 57.831 9.53705C57.6288 9.55795 57.3437 9.61809 57.3265 9.64349C57.3186 9.65519 57.2667 9.67102 57.2112 9.67863C57.0792 9.69676 56.826 9.76707 56.8076 9.79074C56.7997 9.80095 56.7381 9.81851 56.6708 9.82978C56.6035 9.84102 56.5411 9.86206 56.5322 9.87654C56.5232 9.89101 56.4843 9.90286 56.4455 9.90286C56.4068 9.90286 56.3752 9.91416 56.3752 9.928C56.3752 9.94183 56.3207 9.96187 56.2541 9.97251C56.1875 9.98315 56.1194 10.0024 56.1027 10.0153C56.0861 10.0282 55.9752 10.0751 55.8563 10.1196C55.7373 10.1641 55.6334 10.2103 55.6253 10.2224C55.6172 10.2344 55.5739 10.2534 55.5291 10.2647C55.4842 10.276 55.3871 10.3159 55.3131 10.3533C55.2393 10.3908 55.1623 10.4216 55.1422 10.4217C55.122 10.4217 55.0542 10.4542 54.9914 10.4938C54.9286 10.5335 54.8637 10.5659 54.8473 10.5659C54.8308 10.5659 54.7659 10.5983 54.7031 10.638C54.6403 10.6776 54.5757 10.7101 54.5595 10.7101C54.5434 10.7101 54.5301 10.722 54.5301 10.7366C54.5301 10.7512 54.4912 10.7717 54.4436 10.7821C54.3961 10.7926 54.3572 10.8131 54.3572 10.8277C54.3572 10.8423 54.3312 10.8542 54.2995 10.8542C54.2678 10.8542 54.2418 10.8669 54.2418 10.8825C54.2418 10.898 54.2094 10.9189 54.1698 10.9288C54.1301 10.9388 54.0977 10.9585 54.0977 10.9726C54.0977 10.9868 54.0782 10.9983 54.0545 10.9983C54.0307 10.9983 54.0112 11.0105 54.0112 11.0252C54.0112 11.04 53.982 11.0612 53.9464 11.0724C53.9107 11.0835 53.875 11.1006 53.8671 11.1103C53.8439 11.1388 53.7416 11.2004 53.6869 11.2188C53.6591 11.2281 53.6364 11.2472 53.6364 11.2612C53.6364 11.2752 53.6239 11.2866 53.6085 11.2866C53.5754 11.2866 53.3092 11.4643 53.2953 11.4956C53.29 11.5076 53.2673 11.5173 53.2449 11.5173C53.2224 11.5173 53.2037 11.527 53.2034 11.5389C53.203 11.5508 53.1384 11.6059 53.0599 11.6614C52.9813 11.7169 52.9167 11.772 52.9164 11.7839C52.916 11.7958 52.9018 11.8056 52.8849 11.8056C52.8678 11.8056 52.8359 11.8218 52.8138 11.8416C52.7272 11.9193 52.6868 11.9497 52.6705 11.9497C52.6612 11.9497 52.6249 11.9802 52.59 12.0174C52.5551 12.0546 52.5104 12.0903 52.4906 12.0967C52.3708 12.1353 50.9131 13.5932 50.7298 13.8578C50.7043 13.8945 50.6605 13.9495 50.6324 13.98C50.6043 14.0105 50.5737 14.0592 50.5646 14.0881C50.5554 14.117 50.5358 14.1407 50.521 14.1407C50.5062 14.1407 50.4941 14.1583 50.4941 14.1799C50.4941 14.2014 50.4617 14.2435 50.422 14.2732C50.3824 14.303 50.35 14.3431 50.35 14.3624C50.35 14.3817 50.3191 14.4284 50.2814 14.4661C50.2436 14.5039 50.2038 14.5628 50.1929 14.5972C50.182 14.6315 50.161 14.6596 50.1462 14.6596C50.1315 14.6596 50.1193 14.678 50.1193 14.7004C50.1193 14.7229 50.1096 14.7456 50.0977 14.7509C50.0858 14.7562 50.0242 14.8384 49.9608 14.9336C49.7879 15.1932 49.7732 15.2174 49.7548 15.2722C49.7455 15.3 49.7274 15.3227 49.7147 15.3227C49.7019 15.3227 49.6829 15.3616 49.6725 15.4091C49.6621 15.4567 49.6436 15.4956 49.6315 15.4956C49.6194 15.4956 49.5848 15.5443 49.5545 15.6037C49.5243 15.6632 49.4928 15.7183 49.4846 15.7263C49.4478 15.7617 49.2257 16.218 49.2257 16.2581C49.2257 16.2827 49.2159 16.3029 49.204 16.303C49.171 16.3033 49.0815 16.4733 49.0815 16.5358C49.0815 16.5662 49.0685 16.5911 49.0527 16.5911C49.0368 16.5911 49.0239 16.6054 49.0239 16.6228C49.0239 16.6402 49.0044 16.6986 48.9806 16.7525C48.9568 16.8064 48.9179 16.8947 48.8941 16.9486C48.8703 17.0026 48.8509 17.0609 48.8509 17.0784C48.8509 17.0958 48.8379 17.11 48.8221 17.11C48.8062 17.11 48.7932 17.1425 48.7932 17.1821C48.7932 17.2217 48.7814 17.2542 48.7669 17.2542C48.7525 17.2542 48.7319 17.3061 48.7211 17.3695C48.7104 17.4329 48.6898 17.4848 48.6754 17.4848C48.6609 17.4848 48.6491 17.5093 48.6491 17.5392C48.6491 17.5691 48.6297 17.6307 48.606 17.6761C48.5823 17.7215 48.5629 17.7879 48.5628 17.8235C48.5627 17.8592 48.5496 17.8884 48.5338 17.8884C48.5179 17.8884 48.5049 17.933 48.5049 17.9876C48.5049 18.0422 48.492 18.0948 48.4761 18.1046C48.4603 18.1144 48.4472 18.1509 48.4471 18.1856C48.447 18.2203 48.4275 18.2859 48.4039 18.3313C48.3802 18.3768 48.36 18.4416 48.3591 18.4755C48.3572 18.5482 48.2674 18.8983 48.2394 18.9424C48.2288 18.9592 48.211 19.073 48.1999 19.1954C48.1888 19.3178 48.1686 19.4248 48.155 19.4333C48.1413 19.4417 48.1302 19.4906 48.1302 19.542C48.1302 19.5934 48.1178 19.6478 48.1026 19.663C48.0875 19.6781 48.0661 19.8818 48.055 20.1156C48.044 20.3494 48.0252 20.5406 48.0133 20.5406C47.9702 20.5406 47.9511 20.8599 47.9391 21.7781C47.931 22.3955 47.9368 22.7228 47.9564 22.7424C47.9727 22.7587 47.986 22.8343 47.986 22.9104C47.986 22.9865 47.9971 23.0487 48.0106 23.0487C48.0241 23.0487 48.0443 23.2466 48.0554 23.4884C48.0666 23.7302 48.088 23.9323 48.103 23.9376C48.1179 23.9429 48.1302 23.9829 48.1302 24.0265C48.1302 24.0701 48.1399 24.1155 48.1518 24.1273C48.1637 24.1391 48.1883 24.2548 48.2064 24.3844C48.2422 24.6397 48.3504 25.1088 48.3917 25.188C48.4058 25.2151 48.4258 25.29 48.4361 25.3544C48.4464 25.4189 48.4661 25.4786 48.4799 25.4871C48.4937 25.4956 48.5049 25.5472 48.5049 25.6018C48.5049 25.6564 48.5162 25.701 48.5301 25.701C48.5439 25.701 48.5635 25.7529 48.5737 25.8163C48.5838 25.8797 48.6049 25.9316 48.6206 25.9316C48.6362 25.9316 48.6491 25.9641 48.6491 26.0037C48.6491 26.0433 48.6621 26.0758 48.6779 26.0758C48.6938 26.0758 48.7068 26.0984 48.7069 26.1262C48.707 26.154 48.7265 26.2138 48.7502 26.2592C48.7738 26.3047 48.7932 26.3655 48.7932 26.3945C48.7932 26.4234 48.8052 26.4545 48.8198 26.4636C48.8345 26.4726 48.855 26.5188 48.8654 26.5662C48.8758 26.6136 48.8962 26.6523 48.9108 26.6523C48.9254 26.6523 48.9374 26.6763 48.9374 26.7057C48.9374 26.735 48.9698 26.8201 49.0094 26.8946C49.0491 26.9692 49.0815 27.0459 49.0815 27.0652C49.0815 27.0845 49.1139 27.1479 49.1536 27.2063C49.1932 27.2646 49.2257 27.3295 49.2257 27.3504C49.2257 27.3714 49.2561 27.4337 49.2933 27.4889C49.3304 27.5441 49.3696 27.6249 49.3803 27.6685C49.391 27.7122 49.4125 27.7478 49.428 27.7478C49.4436 27.7478 49.4563 27.7673 49.4563 27.7911C49.4563 27.8149 49.4682 27.8343 49.4828 27.8343C49.4974 27.8343 49.5179 27.8732 49.5284 27.9208C49.5388 27.9684 49.5564 28.0073 49.5674 28.0073C49.5785 28.0073 49.6131 28.0655 49.6444 28.1368C49.6757 28.2079 49.7081 28.2663 49.7164 28.2665C49.7247 28.2666 49.757 28.3154 49.7882 28.3749C49.8194 28.4343 49.8521 28.4894 49.8609 28.4974C49.8697 28.5053 49.9334 28.6026 50.0025 28.7136C50.0716 28.8246 50.1391 28.9197 50.1526 28.925C50.166 28.9303 50.177 28.9502 50.177 28.9692C50.177 29.004 50.2516 29.1083 50.3716 29.2412C50.4073 29.2807 50.4365 29.3216 50.4365 29.3322C50.4365 29.3427 50.4593 29.3765 50.4872 29.4072C50.515 29.438 50.5831 29.5215 50.6383 29.5929C50.6936 29.6642 50.7486 29.7269 50.7606 29.7322C50.7726 29.7375 50.7824 29.7547 50.7824 29.7705C50.7824 29.7863 50.8343 29.8506 50.8977 29.9134C50.9611 29.9761 51.013 30.0378 51.013 30.0503C51.013 30.0815 52.0767 31.1496 52.1078 31.1496C52.1214 31.1496 52.1971 31.2145 52.276 31.2938C52.3549 31.373 52.4279 31.4379 52.4382 31.4379C52.4485 31.4379 52.508 31.4851 52.5704 31.5429C52.6328 31.6006 52.7134 31.6682 52.7494 31.693C52.7854 31.7179 52.8315 31.7545 52.8519 31.7744C52.8723 31.7944 52.9274 31.8334 52.9744 31.8611C53.0214 31.8889 53.0599 31.9218 53.0599 31.9342C53.0599 31.9466 53.0793 31.9568 53.1031 31.9568C53.1269 31.9568 53.1464 31.9669 53.1464 31.9791C53.1464 31.9914 53.1918 32.0258 53.2473 32.0557C53.3028 32.0856 53.3482 32.1196 53.3482 32.1312C53.3482 32.1428 53.3806 32.1605 53.4202 32.1705C53.4599 32.1804 53.4923 32.2013 53.4923 32.2168C53.4923 32.2324 53.5118 32.2451 53.5355 32.2451C53.5593 32.2451 53.5788 32.2578 53.5788 32.2734C53.5788 32.2889 53.6112 32.3098 53.6509 32.3197C53.6905 32.3297 53.7229 32.3494 53.7229 32.3635C53.7229 32.3777 53.7424 32.3892 53.7662 32.3892C53.79 32.3892 53.8094 32.402 53.8094 32.4175C53.8094 32.4331 53.8419 32.4539 53.8815 32.4639C53.9211 32.4738 53.9536 32.4921 53.9536 32.5043C53.9536 32.5166 53.9762 32.5345 54.004 32.544C54.0318 32.5535 54.1064 32.5942 54.1698 32.6345C54.2332 32.6747 54.3175 32.7233 54.3572 32.7425C54.3968 32.7616 54.4357 32.784 54.4436 32.7923C54.4662 32.8157 54.5689 32.8779 54.6166 32.897C54.6832 32.9237 54.8279 32.9933 54.8761 33.0219C54.9503 33.0659 55.1283 33.1388 55.1615 33.1388C55.179 33.1388 55.1932 33.1489 55.1932 33.1613C55.1932 33.1737 55.2581 33.2089 55.3373 33.2397C55.4166 33.2705 55.4815 33.3057 55.4815 33.3181C55.4815 33.3305 55.5064 33.3406 55.5368 33.3406C55.5672 33.3406 55.6289 33.3588 55.6737 33.3812C55.7186 33.4035 55.7878 33.4346 55.8274 33.4503C55.8671 33.466 55.9469 33.4996 56.0047 33.525C56.0626 33.5504 56.13 33.5712 56.1544 33.5712C56.1788 33.5712 56.2061 33.583 56.2149 33.5973C56.2238 33.6117 56.296 33.6324 56.3752 33.6433C56.4545 33.6542 56.5193 33.6749 56.5193 33.6893C56.5193 33.7036 56.5445 33.7154 56.5753 33.7154C56.6061 33.7154 56.6387 33.7274 56.6478 33.7422C56.6569 33.7569 56.7357 33.7779 56.8229 33.7888C56.91 33.7997 56.9884 33.82 56.9971 33.8341C57.0057 33.8481 57.0445 33.8595 57.0832 33.8595C57.1219 33.8595 57.1535 33.8714 57.1535 33.886C57.1535 33.9007 57.2379 33.9216 57.3409 33.9327C57.444 33.9437 57.5283 33.9612 57.5283 33.9716C57.5283 34.0009 57.8254 34.063 58.0558 34.0819C58.17 34.0912 58.2699 34.1077 58.2779 34.1185C58.3085 34.1602 58.6555 34.2086 59.0418 34.2249C59.2685 34.2346 59.4632 34.2562 59.4859 34.2742C59.5425 34.3192 61.4239 34.3192 61.4806 34.2742C61.5037 34.256 61.7057 34.2345 61.9497 34.2245C62.3644 34.2074 62.6887 34.1583 62.6887 34.1124C62.6887 34.1002 62.7614 34.0901 62.8503 34.0901C63.0092 34.0901 63.41 34.0106 63.4382 33.9734C63.4461 33.963 63.524 33.9455 63.6112 33.9345C63.7685 33.9146 63.945 33.866 64.0004 33.8274C64.0162 33.8163 64.091 33.798 64.1665 33.7868C64.242 33.7756 64.3109 33.7549 64.3195 33.7409C64.3282 33.7268 64.3605 33.7154 64.3913 33.7154C64.422 33.7154 64.4472 33.7039 64.4472 33.6898C64.4472 33.6758 64.5075 33.6552 64.5812 33.6442C64.7172 33.6238 64.7333 33.6182 64.9036 33.5329C64.9564 33.5064 65.0182 33.4847 65.0409 33.4847C65.0826 33.4847 65.1041 33.4761 65.2784 33.3887C65.3312 33.3622 65.3993 33.3406 65.4297 33.3406C65.4601 33.3406 65.485 33.3276 65.485 33.3118C65.485 33.2959 65.4993 33.2829 65.5167 33.2829C65.5519 33.2829 65.7127 33.2157 65.8454 33.1455C65.893 33.1204 65.9578 33.0871 65.9895 33.0716C66.0213 33.0561 66.0667 33.032 66.0904 33.0182C66.1142 33.0043 66.1564 32.9854 66.1841 32.976C66.2119 32.9667 66.2346 32.9476 66.2346 32.9336C66.2346 32.9196 66.253 32.9082 66.2755 32.9082C66.3133 32.9082 66.4897 32.8259 66.5229 32.7929C66.5308 32.7849 66.5827 32.7541 66.6382 32.7243C66.8445 32.6136 66.999 32.5241 67.013 32.5074C67.0209 32.4979 67.076 32.4654 67.1355 32.4352C67.195 32.4049 67.2436 32.3707 67.2436 32.359C67.2436 32.3474 67.276 32.3297 67.3157 32.3197C67.3553 32.3098 67.3877 32.2889 67.3877 32.2734C67.3877 32.2578 67.4072 32.2451 67.431 32.2451C67.4548 32.2451 67.4742 32.2335 67.4742 32.2194C67.4742 32.2053 67.5067 32.1855 67.5463 32.1756C67.5859 32.1657 67.6184 32.1448 67.6184 32.1292C67.6184 32.1137 67.6347 32.101 67.6547 32.101C67.6747 32.101 67.726 32.0685 67.7688 32.0289C67.8115 31.9893 67.8543 31.9568 67.8638 31.9568C67.8787 31.9568 68.0472 31.832 68.1556 31.7406C68.1745 31.7247 68.2635 31.6534 68.3535 31.582C68.4435 31.5107 68.5776 31.3972 68.6514 31.3298C68.7254 31.2624 68.794 31.2073 68.804 31.2073C68.814 31.2073 68.8767 31.1544 68.9434 31.0897C69.1462 30.8928 69.1443 30.8811 69.1454 32.3223C69.1462 33.4147 69.1518 33.5727 69.1916 33.6124C69.2321 33.653 69.525 33.6577 71.9835 33.6577C74.6078 33.6577 74.7323 33.6554 74.7778 33.605C74.8219 33.5563 74.8255 33.0409 74.8255 26.7759V19.9995L74.8966 19.953C74.9615 19.9105 75.5561 19.9064 81.7617 19.9064H88.5556L88.6095 19.9685C88.6617 20.0287 88.6633 20.2321 88.6633 26.7903V33.55L88.7254 33.6039C88.7851 33.6556 88.8938 33.6577 91.5298 33.6577C94.2416 33.6577 94.2727 33.6571 94.3218 33.5997C94.3686 33.545 94.3714 32.6119 94.3714 17.0212C94.3714 2.74175 94.3658 0.494983 94.3302 0.459409C94.2951 0.424295 93.8852 0.418213 91.5485 0.418213H88.8079L88.7356 0.481059L88.6633 0.543935V7.33589C88.6633 14.105 88.6631 14.128 88.6054 14.1775C88.5508 14.2242 88.1399 14.2272 81.7441 14.2272C74.9793 14.2272 74.9405 14.2268 74.8832 14.1695C74.8259 14.1122 74.8255 14.0734 74.8255 7.31467C74.8255 0.540302 74.8253 0.517354 74.7676 0.467855C74.7135 0.421614 74.5226 0.418328 71.9784 0.419914C69.4024 0.421528 69.2443 0.424555 69.1967 0.472786ZM47.8995 9.26519C47.8995 9.27915 47.7763 9.29596 47.6258 9.30256C47.4664 9.30953 47.3375 9.32902 47.3173 9.34923C47.2977 9.36886 47.2045 9.38394 47.1027 9.38394C47.0037 9.38394 46.9147 9.39691 46.9049 9.41277C46.8951 9.42863 46.8421 9.4416 46.787 9.4416C46.7319 9.4416 46.6403 9.46106 46.5834 9.48484C46.5265 9.50863 46.4433 9.52808 46.3986 9.52808C46.3539 9.52808 46.3104 9.53936 46.3019 9.55314C46.2934 9.56689 46.2337 9.58661 46.1692 9.5969C46.1047 9.60722 46.0299 9.62682 46.0028 9.64046C45.9757 9.65409 45.8822 9.6882 45.795 9.71625C45.7078 9.7443 45.6235 9.77682 45.6077 9.7885C45.5918 9.80017 45.5343 9.81925 45.4799 9.8309C45.4255 9.84255 45.3375 9.87648 45.2844 9.90632C45.2313 9.93613 45.1754 9.96052 45.1601 9.96052C45.1116 9.96052 44.9013 10.0597 44.9013 10.0826C44.9013 10.0947 44.8885 10.1047 44.8727 10.1047C44.8262 10.1047 44.6131 10.203 44.6131 10.2245C44.6131 10.2353 44.5741 10.2528 44.5266 10.2632C44.479 10.2737 44.4401 10.2941 44.4401 10.3087C44.4401 10.3234 44.4217 10.3353 44.3992 10.3353C44.3581 10.3353 44.2305 10.3941 43.9657 10.535C43.9189 10.5599 43.8628 10.5966 43.8411 10.6164C43.8195 10.6362 43.7832 10.6524 43.7606 10.6524C43.7379 10.6524 43.7194 10.6654 43.7194 10.6812C43.7194 10.6971 43.6999 10.7101 43.6761 10.7101C43.6523 10.7101 43.6329 10.7228 43.6329 10.7383C43.6329 10.7539 43.6005 10.7748 43.5608 10.7847C43.5212 10.7946 43.4887 10.8129 43.4887 10.8251C43.4887 10.8374 43.4661 10.8551 43.4383 10.8644C43.3855 10.8822 43.2828 10.9433 43.2581 10.9717C43.2502 10.9808 43.2015 11.0128 43.15 11.0428C43.0985 11.0728 43.0563 11.1074 43.0563 11.1199C43.0563 11.1323 43.04 11.1425 43.02 11.1425C43 11.1425 42.9507 11.1717 42.9104 11.2074C42.8303 11.2782 42.7489 11.3339 42.6815 11.364C42.6578 11.3746 42.6097 11.4134 42.5748 11.4502C42.5399 11.4871 42.4977 11.5173 42.4811 11.5173C42.4645 11.5173 42.4509 11.5282 42.4509 11.5415C42.4509 11.5548 42.4201 11.5797 42.3824 11.5969C42.255 11.6549 42.2491 11.618 42.2491 10.7641V9.96469L42.1724 9.90438L42.0957 9.84408L39.3688 9.85183C37.869 9.85613 36.6257 9.87011 36.6059 9.88294C36.5771 9.90153 36.5699 12.304 36.5699 21.7367C36.5699 32.4532 36.5741 33.5714 36.6151 33.6124C36.6557 33.653 36.9484 33.6577 39.4051 33.6577C42.1169 33.6577 42.1504 33.657 42.1993 33.5999C42.2457 33.5457 42.2495 33.1515 42.2594 27.3368C42.2699 21.1959 42.2816 20.4311 42.366 20.4013C42.381 20.396 42.3932 20.3546 42.3932 20.3093C42.3932 20.264 42.4047 20.2199 42.4187 20.2112C42.4327 20.2026 42.4532 20.111 42.4642 20.0077C42.4753 19.9044 42.4963 19.8199 42.5109 19.8199C42.5255 19.8199 42.5374 19.7875 42.5374 19.7479C42.5374 19.7082 42.5492 19.6758 42.5635 19.6758C42.5779 19.6758 42.5986 19.6109 42.6095 19.5316C42.6204 19.4524 42.638 19.3875 42.6486 19.3875C42.6723 19.3875 42.768 19.1242 42.768 19.0593C42.768 19.0337 42.7807 19.0127 42.7963 19.0127C42.8118 19.0127 42.8327 18.9803 42.8427 18.9407C42.8526 18.901 42.8723 18.8686 42.8865 18.8686C42.9006 18.8686 42.9122 18.8362 42.9122 18.7965C42.9122 18.7569 42.9249 18.7244 42.9404 18.7244C42.956 18.7244 42.9769 18.692 42.9868 18.6524C42.9967 18.6127 43.0165 18.5803 43.0306 18.5803C43.0448 18.5803 43.0563 18.5608 43.0563 18.5371C43.0563 18.5133 43.0693 18.4938 43.0851 18.4938C43.101 18.4938 43.114 18.4753 43.114 18.4526C43.114 18.43 43.1304 18.3943 43.1505 18.3733C43.1706 18.3524 43.2124 18.2769 43.2434 18.2055C43.2744 18.1342 43.3075 18.0693 43.3169 18.0614C43.3263 18.0535 43.3916 17.9691 43.4618 17.874C43.5321 17.7789 43.6123 17.6759 43.6401 17.6452C43.6679 17.6144 43.6905 17.5806 43.6905 17.5701C43.6905 17.5595 43.7197 17.5183 43.7554 17.4785C43.7911 17.4387 43.8611 17.3557 43.911 17.2941C44.0537 17.1179 44.7313 16.447 44.7666 16.447C44.775 16.447 44.8301 16.4016 44.8889 16.3461C44.9478 16.2906 45.0061 16.2452 45.0186 16.2452C45.0311 16.2452 45.0585 16.2288 45.0795 16.2088C45.1695 16.1228 45.4805 15.9262 45.8238 15.7382C45.8793 15.7079 45.9312 15.6765 45.9392 15.6686C45.9724 15.6355 46.1488 15.5533 46.1866 15.5533C46.209 15.5533 46.2275 15.5409 46.2275 15.5258C46.2275 15.5106 46.2729 15.4897 46.3284 15.4793C46.3839 15.4689 46.4293 15.4488 46.4293 15.4348C46.4293 15.4207 46.4617 15.4091 46.5013 15.4091C46.541 15.4091 46.5734 15.3967 46.5734 15.3816C46.5734 15.3665 46.619 15.3455 46.6746 15.3351C46.7303 15.3247 46.783 15.3046 46.7916 15.2906C46.8003 15.2765 46.8384 15.265 46.8761 15.265C46.9139 15.265 46.9518 15.2537 46.9603 15.2399C46.9688 15.2262 47.0305 15.2062 47.0975 15.1954C47.1644 15.1847 47.2328 15.1651 47.2494 15.1518C47.2661 15.1386 47.3251 15.121 47.3806 15.1128C47.6492 15.0731 47.8866 15.0224 47.9006 15.0017C47.9091 14.9891 48.1474 14.9698 48.4302 14.9587C48.9054 14.9402 48.9495 14.9339 49.0129 14.8751L49.0815 14.8116V12.0833C49.0815 9.39354 49.0807 9.3543 49.0239 9.29745C48.9703 9.24395 48.9278 9.2398 48.4329 9.2398C48.1395 9.2398 47.8995 9.25121 47.8995 9.26519ZM69.1117 13.3104C69.1588 13.3575 69.1624 30.2282 69.1154 30.2753C69.0791 30.3116 68.9451 30.2609 68.9447 30.2107C68.9444 30.1714 67.6874 28.9298 67.6479 28.9298C67.6316 28.9298 67.6184 28.9135 67.6184 28.8937C67.6184 28.8738 67.1281 28.3678 66.5288 27.7693C65.2753 26.5174 65.3751 26.5823 65.0882 26.8325C64.7377 27.1383 64.6493 27.212 64.6002 27.2395C64.5726 27.2549 64.5211 27.2946 64.4856 27.3275C64.3894 27.417 64.3554 27.4426 64.2526 27.5032C64.2011 27.5336 64.1589 27.5672 64.1589 27.5779C64.1589 27.5887 64.1265 27.6056 64.0868 27.6155C64.0472 27.6255 64.0148 27.6464 64.0148 27.6619C64.0148 27.6775 63.9953 27.6902 63.9715 27.6902C63.9478 27.6902 63.9283 27.7031 63.9283 27.719C63.9283 27.7349 63.9118 27.7478 63.8917 27.7478C63.8716 27.7478 63.8085 27.7796 63.7513 27.8184C63.6942 27.8572 63.6133 27.8976 63.5716 27.908C63.53 27.9185 63.4959 27.9386 63.4959 27.9527C63.4959 27.9669 63.4762 27.9785 63.4522 27.9785C63.4282 27.9785 63.3861 27.991 63.3585 28.0063C63.2772 28.0515 63.0577 28.1416 62.9337 28.1807C62.8703 28.2007 62.7924 28.2269 62.7607 28.2389C62.5371 28.3233 62.43 28.3532 62.3507 28.3532C62.3006 28.3532 62.2516 28.3662 62.2418 28.3821C62.232 28.3979 62.1854 28.4109 62.1383 28.4109C62.0912 28.4109 62.006 28.4303 61.9491 28.4541C61.8921 28.4779 61.7831 28.4974 61.7067 28.4974C61.6303 28.4974 61.5608 28.5086 61.5523 28.5224C61.5438 28.5361 61.3998 28.5535 61.2324 28.5609C61.0575 28.5687 60.9137 28.5888 60.8944 28.608C60.8548 28.6476 60.3937 28.6544 60.3698 28.6157C60.3611 28.6016 60.1527 28.5805 59.9069 28.569C59.661 28.5575 59.4598 28.5366 59.4598 28.5227C59.4598 28.5088 59.3828 28.4974 59.2886 28.4974C59.1944 28.4974 59.1098 28.4853 59.1007 28.4706C59.0916 28.4558 59.0129 28.4348 58.9257 28.4239C58.8385 28.413 58.7601 28.3927 58.7515 28.3787C58.7428 28.3647 58.7046 28.3532 58.6665 28.3532C58.5739 28.3532 58.2779 28.2609 58.2779 28.232C58.2779 28.2194 58.2458 28.2091 58.2066 28.2091C58.1674 28.2091 58.0668 28.1779 57.9832 28.1399C57.8995 28.1018 57.7629 28.0474 57.6797 28.0189C57.5964 27.9904 57.5283 27.9581 57.5283 27.9471C57.5283 27.9362 57.4829 27.9187 57.4274 27.9083C57.3719 27.8979 57.3265 27.879 57.3265 27.8664C57.3265 27.8537 57.2779 27.8187 57.2184 27.7884C57.159 27.7581 57.1038 27.7269 57.0959 27.719C57.0668 27.6899 56.9647 27.6304 56.9157 27.6139C56.8879 27.6046 56.8653 27.5855 56.8653 27.5715C56.8653 27.5575 56.8474 27.546 56.8255 27.546C56.8037 27.546 56.7697 27.5266 56.7499 27.5028C56.7302 27.479 56.6962 27.4595 56.6744 27.4595C56.6525 27.4595 56.6106 27.4369 56.5813 27.4091C56.5037 27.3356 56.4187 27.2687 56.3277 27.2092C56.2836 27.1804 56.1917 27.1049 56.1236 27.0415C56.0554 26.9781 55.9056 26.8419 55.7908 26.7388C55.6759 26.6358 55.5107 26.4691 55.4236 26.3684C55.3365 26.2678 55.2166 26.1358 55.1572 26.0752C55.0977 26.0146 55.049 25.9519 55.049 25.9359C55.049 25.92 55.0326 25.8898 55.0124 25.8688C54.9923 25.8479 54.9252 25.7594 54.8634 25.6722C54.8016 25.585 54.737 25.5006 54.7198 25.4848C54.7027 25.4689 54.6629 25.4073 54.6316 25.3478C54.6003 25.2884 54.5647 25.2397 54.5524 25.2397C54.5402 25.2397 54.5301 25.2149 54.5301 25.1845C54.5301 25.1541 54.5203 25.1249 54.5081 25.1196C54.48 25.1073 54.1554 24.4526 54.1554 24.4083C54.1554 24.3899 54.1453 24.3749 54.1331 24.3749C54.1124 24.3749 54.0597 24.2087 54.0211 24.0217C54.0121 23.9781 53.9937 23.9424 53.9804 23.9424C53.9671 23.9424 53.9484 23.8938 53.9389 23.8343C53.9294 23.7749 53.9093 23.7037 53.8943 23.6762C53.8793 23.6486 53.8671 23.5961 53.8671 23.5594C53.8671 23.5227 53.8542 23.4798 53.8384 23.464C53.8226 23.4482 53.8012 23.3349 53.7908 23.2122C53.7804 23.0895 53.7609 22.9824 53.7474 22.974C53.734 22.9657 53.7229 22.8834 53.7229 22.7911C53.7229 22.6989 53.7035 22.5768 53.6797 22.5199C53.6459 22.4391 53.6364 22.2842 53.6364 21.8137C53.6364 21.3516 53.6465 21.1823 53.6797 21.0884C53.7035 21.021 53.7229 20.8774 53.7229 20.7693C53.7229 20.6613 53.7341 20.566 53.7477 20.5576C53.7613 20.5492 53.7797 20.4626 53.7885 20.3652C53.7973 20.2678 53.8186 20.174 53.8358 20.1568C53.853 20.1396 53.8671 20.0892 53.8671 20.0448C53.8671 20.0004 53.8782 19.9641 53.8919 19.9641C53.9055 19.9641 53.9246 19.897 53.9344 19.8149C53.9441 19.7329 53.9654 19.6525 53.9816 19.6362C53.9979 19.6199 54.0112 19.5847 54.0112 19.558C54.0112 19.5313 54.0306 19.4723 54.0543 19.4268C54.078 19.3814 54.0974 19.3216 54.0975 19.2938C54.0976 19.266 54.1107 19.2434 54.1265 19.2434C54.1424 19.2434 54.1554 19.2109 54.1554 19.1713C54.1554 19.1316 54.1682 19.0992 54.1838 19.0992C54.1995 19.0992 54.2206 19.0473 54.2308 18.9839C54.2409 18.9205 54.2585 18.8686 54.2698 18.8686C54.2811 18.8686 54.3152 18.82 54.3454 18.7605C54.3757 18.701 54.4072 18.6459 54.4156 18.638C54.424 18.63 54.4562 18.5652 54.4872 18.4938C54.5182 18.4225 54.56 18.3469 54.5801 18.326C54.6002 18.305 54.6166 18.2694 54.6166 18.2467C54.6166 18.2241 54.6296 18.2055 54.6455 18.2055C54.6613 18.2055 54.6743 18.1861 54.6743 18.1623C54.6743 18.1385 54.6864 18.119 54.7012 18.119C54.716 18.119 54.7353 18.0963 54.7442 18.0686C54.7531 18.0408 54.7929 17.9805 54.8327 17.9344C54.8724 17.8883 54.9049 17.839 54.9049 17.8249C54.9049 17.8107 54.9373 17.7691 54.977 17.7324C55.0166 17.6956 55.049 17.6563 55.049 17.6448C55.049 17.6334 55.1166 17.5534 55.1991 17.4669C55.2816 17.3804 55.3757 17.2758 55.4081 17.2345C55.5045 17.1115 55.8819 16.7353 55.9088 16.7353C55.9225 16.7353 55.9844 16.686 56.0464 16.6257C56.1083 16.5655 56.2368 16.4584 56.3319 16.3879C56.4271 16.3173 56.5092 16.2498 56.5145 16.238C56.5198 16.2261 56.5425 16.2163 56.565 16.2163C56.5874 16.2163 56.6058 16.2063 56.6058 16.1941C56.6058 16.1818 56.6512 16.1474 56.7067 16.1175C56.7622 16.0876 56.8076 16.0522 56.8076 16.0388C56.8076 16.0255 56.8261 16.0145 56.8488 16.0145C56.8714 16.0145 56.9071 15.9983 56.9282 15.9785C57.0233 15.8888 57.8725 15.4668 57.9579 15.4668C57.9753 15.4668 57.9896 15.4538 57.9896 15.438C57.9896 15.4221 58.022 15.4091 58.0617 15.4091C58.1013 15.4091 58.1337 15.3978 58.1337 15.384C58.1337 15.3702 58.1862 15.3505 58.2503 15.3402C58.3144 15.3299 58.389 15.31 58.4161 15.2959C58.4903 15.2573 58.7672 15.1785 58.8289 15.1785C58.8588 15.1785 58.8833 15.1655 58.8833 15.1497C58.8833 15.1338 58.9319 15.1209 58.9914 15.1209C59.1296 15.1209 59.5728 15.0394 59.6439 15.0009C59.7162 14.9617 61.3354 14.9617 61.3597 15.0009C61.3763 15.0278 61.632 15.0756 61.9535 15.1119C62.0328 15.1208 62.1106 15.138 62.1265 15.15C62.1424 15.162 62.2007 15.1809 62.2562 15.192C62.3834 15.2173 62.5448 15.2651 62.6058 15.2954C62.6316 15.3082 62.6999 15.3276 62.7575 15.3384C62.8151 15.3492 62.8694 15.3695 62.8781 15.3836C62.8867 15.3976 62.9255 15.4091 62.9642 15.4091C63.003 15.4091 63.0346 15.4211 63.0346 15.4357C63.0346 15.4503 63.0735 15.4708 63.1211 15.4812C63.1687 15.4916 63.2076 15.5121 63.2076 15.5267C63.2076 15.5413 63.24 15.5533 63.2796 15.5533C63.3193 15.5533 63.3517 15.5657 63.3517 15.5808C63.3517 15.5959 63.3971 15.6169 63.4526 15.6273C63.5081 15.6377 63.5535 15.6577 63.5535 15.6718C63.5535 15.6859 63.5663 15.6974 63.5818 15.6974C63.6051 15.6974 63.8497 15.8349 64.0436 15.9569C64.0674 15.9719 64.1284 16.0051 64.1792 16.0308C64.23 16.0565 64.3052 16.1087 64.3464 16.1469C64.3876 16.1851 64.4305 16.2163 64.4418 16.2163C64.453 16.2163 64.4972 16.2488 64.5399 16.2884C64.5827 16.3281 64.6265 16.3605 64.6373 16.3605C64.648 16.3605 64.6842 16.3897 64.7178 16.4254C64.7513 16.461 64.8371 16.5354 64.9085 16.5906C64.9798 16.6459 65.0801 16.7334 65.1314 16.7852C65.1826 16.837 65.2443 16.8794 65.2683 16.8794C65.2924 16.8794 65.3121 16.8928 65.3121 16.9092C65.3121 16.9289 65.3329 16.928 65.3732 16.9064C65.425 16.8787 66.0265 16.2988 66.5373 15.7841C66.6166 15.7042 66.9474 15.3732 67.2724 15.0486C67.9751 14.3469 68.0243 14.2976 68.594 13.7224C68.8373 13.4768 69.0455 13.2758 69.0567 13.2758C69.0679 13.2758 69.0927 13.2914 69.1117 13.3104ZM34.8589 36.334C34.8149 36.3826 34.8116 36.5978 34.8184 38.9791L34.8257 41.5712L64.5459 41.5784C94.0248 41.5856 94.2666 41.5852 94.3188 41.5292C94.3689 41.4754 94.3714 41.3516 94.3714 38.9349C94.3714 36.5752 94.3679 36.393 94.3218 36.3391L94.2721 36.2811H64.5894C35.8349 36.2811 34.9052 36.2828 34.8589 36.334Z" fill="black"/>
</svg>